<svg xmlns="http://www.w3.org/2000/svg" xmlns:xlink="http://www.w3.org/1999/xlink" xml:space="preserve" width="600" height="300"><rect x="0" y="0" width="600" height="300" style="fill: #ffffff; fill-opacity: 1;"></rect><defs id="defs-605404"><g class="clips"><clipPath class="axesclip" id="clip605404x"><rect x="40" y="0" width="464" height="300"></rect></clipPath><clipPath class="axesclip" id="clip605404y"><rect x="0" y="30" width="600" height="210"></rect></clipPath><clipPath class="axesclip" id="clip605404xy"><rect x="40" y="30" width="464" height="210"></rect></clipPath></g></defs><g class="subplot xy"><rect x="36" y="26" width="472" height="218" style="stroke-width: 0px; fill: #ffffff; fill-opacity: 1;"></rect><g transform="translate(40,30)"><path class="ygrid crisp" d="M0,0h464" transform="translate(0,170.1)" style="stroke: #eeeeee; stroke-opacity: 1; stroke-width: 1px;"></path><path class="ygrid crisp" d="M0,0h464" transform="translate(0,130.2)" style="stroke: #eeeeee; stroke-opacity: 1; stroke-width: 1px;"></path><path class="ygrid crisp" d="M0,0h464" transform="translate(0,90.3)" style="stroke: #eeeeee; stroke-opacity: 1; stroke-width: 1px;"></path><path class="ygrid crisp" d="M0,0h464" transform="translate(0,50.4)" style="stroke: #eeeeee; stroke-opacity: 1; stroke-width: 1px;"></path><path class="ygrid crisp" d="M0,0h464" transform="translate(0,10.5)" style="stroke: #eeeeee; stroke-opacity: 1; stroke-width: 1px;"></path></g><g></g><g transform="translate(40,30)"><path class="yzl zl crisp" d="M0,0h464" transform="translate(0,210)" style="stroke: #444444; stroke-opacity: 1; stroke-width: 1px;"></path></g><g></g><svg preserveAspectRatio="none" x="40" y="30" width="464" height="210" viewBox="0 0 464 210" style="fill: none;"><g class="maplayer"></g><g class="barlayer"><g class="trace bars" shape-rendering="crispEdges" style="opacity: 1;"><g class="points"><path d="M279.95,210V146.16H292.32V210Z" style="stroke-width: 0px; fill: #cc0000; fill-opacity: 1;"></path><path d="M326.35,210V106.26H338.72V210Z" style="stroke-width: 0px; fill: #cc0000; fill-opacity: 1;"></path><path d="M341.81,210V162.12H354.19V210Z" style="stroke-width: 0px; fill: #cc0000; fill-opacity: 1;"></path><path d="M403.68,210V186.06H416.05V210Z" style="stroke-width: 0px; fill: #cc0000; fill-opacity: 1;"></path></g></g><g class="trace bars" shape-rendering="crispEdges" style="opacity: 1;"><g class="points"><path d="M171.68,210V130.2H184.05V210Z" style="stroke-width: 0px; fill: #00cc66; fill-opacity: 1;"></path><path d="M279.95,146.16V50.4H292.32V146.16Z" style="stroke-width: 0px; fill: #00cc66; fill-opacity: 1;"></path><path d="M326.35,106.26V50.4H338.72V106.26Z" style="stroke-width: 0px; fill: #00cc66; fill-opacity: 1;"></path><path d="M341.81,162.12V82.32H354.19V162.12Z" style="stroke-width: 0px; fill: #00cc66; fill-opacity: 1;"></path><path d="M403.68,186.06V10.5H416.05V186.06Z" style="stroke-width: 0px; fill: #00cc66; fill-opacity: 1;"></path><path d="M419.15,210V130.2H431.52V210Z" style="stroke-width: 0px; fill: #00cc66; fill-opacity: 1;"></path></g></g></g><g class="errorlayer"><g class="errorbars"></g><g class="errorbars"></g></g><g class="boxlayer"></g><g class="scatterlayer"></g></svg><g></g><path class="crisp" transform="translate(40,30)" d="M-5,214.5h474" style="fill: none; stroke-width: 1px; stroke: #000000; stroke-opacity: 0;"></path><path class="crisp" transform="translate(40,30)" d="M-4.5,-5v219" stroke-width="1px" style="fill: none; stroke: #000000; stroke-opacity: 0;"></path><g></g><g transform="translate(40,30)"><g class="xtick" data-bb="7262"><text text-anchor="start" x="0" y="228" transform="translate(7.73,0) rotate(90,0,222)" style="font-family: 'Open sans', verdana, arial, sans-serif; font-size: 12px; fill: #444444; fill-opacity: 1; visibility: visible;" data-bb="7231">02/10</text></g><g class="xtick" data-bb="7263"><text text-anchor="start" x="0" y="228" transform="translate(23.2,0) rotate(90,0,222)" style="font-family: 'Open sans', verdana, arial, sans-serif; font-size: 12px; fill: #444444; fill-opacity: 1; visibility: visible;" data-bb="7232">02/11</text></g><g class="xtick" data-bb="7264"><text text-anchor="start" x="0" y="228" transform="translate(38.67,0) rotate(90,0,222)" style="font-family: 'Open sans', verdana, arial, sans-serif; font-size: 12px; fill: #444444; fill-opacity: 1; visibility: visible;" data-bb="7233">02/12</text></g><g class="xtick" data-bb="7265"><text text-anchor="start" x="0" y="228" transform="translate(54.13,0) rotate(90,0,222)" style="font-family: 'Open sans', verdana, arial, sans-serif; font-size: 12px; fill: #444444; fill-opacity: 1; visibility: visible;" data-bb="7234">02/13</text></g><g class="xtick" data-bb="7266"><text text-anchor="start" x="0" y="228" transform="translate(69.6,0) rotate(90,0,222)" style="font-family: 'Open sans', verdana, arial, sans-serif; font-size: 12px; fill: #444444; fill-opacity: 1; visibility: visible;" data-bb="7235">02/14</text></g><g class="xtick" data-bb="7267"><text text-anchor="start" x="0" y="228" transform="translate(85.07,0) rotate(90,0,222)" style="font-family: 'Open sans', verdana, arial, sans-serif; font-size: 12px; fill: #444444; fill-opacity: 1; visibility: visible;" data-bb="7236">02/15</text></g><g class="xtick" data-bb="7268"><text text-anchor="start" x="0" y="228" transform="translate(100.53,0) rotate(90,0,222)" style="font-family: 'Open sans', verdana, arial, sans-serif; font-size: 12px; fill: #444444; fill-opacity: 1; visibility: visible;" data-bb="7237">02/16</text></g><g class="xtick" data-bb="7269"><text text-anchor="start" x="0" y="228" transform="translate(116,0) rotate(90,0,222)" style="font-family: 'Open sans', verdana, arial, sans-serif; font-size: 12px; fill: #444444; fill-opacity: 1; visibility: visible;" data-bb="7238">02/17</text></g><g class="xtick" data-bb="7270"><text text-anchor="start" x="0" y="228" transform="translate(131.47,0) rotate(90,0,222)" style="font-family: 'Open sans', verdana, arial, sans-serif; font-size: 12px; fill: #444444; fill-opacity: 1; visibility: visible;" data-bb="7239">02/18</text></g><g class="xtick" data-bb="7271"><text text-anchor="start" x="0" y="228" transform="translate(146.93,0) rotate(90,0,222)" style="font-family: 'Open sans', verdana, arial, sans-serif; font-size: 12px; fill: #444444; fill-opacity: 1; visibility: visible;" data-bb="7240">02/19</text></g><g class="xtick" data-bb="7272"><text text-anchor="start" x="0" y="228" transform="translate(162.4,0) rotate(90,0,222)" style="font-family: 'Open sans', verdana, arial, sans-serif; font-size: 12px; fill: #444444; fill-opacity: 1; visibility: visible;" data-bb="7241">02/20</text></g><g class="xtick" data-bb="7273"><text text-anchor="start" x="0" y="228" transform="translate(177.87,0) rotate(90,0,222)" style="font-family: 'Open sans', verdana, arial, sans-serif; font-size: 12px; fill: #444444; fill-opacity: 1; visibility: visible;" data-bb="7242">02/21</text></g><g class="xtick" data-bb="7274"><text text-anchor="start" x="0" y="228" transform="translate(193.33,0) rotate(90,0,222)" style="font-family: 'Open sans', verdana, arial, sans-serif; font-size: 12px; fill: #444444; fill-opacity: 1; visibility: visible;" data-bb="7243">02/22</text></g><g class="xtick" data-bb="7275"><text text-anchor="start" x="0" y="228" transform="translate(208.8,0) rotate(90,0,222)" style="font-family: 'Open sans', verdana, arial, sans-serif; font-size: 12px; fill: #444444; fill-opacity: 1; visibility: visible;" data-bb="7244">02/23</text></g><g class="xtick" data-bb="7276"><text text-anchor="start" x="0" y="228" transform="translate(224.27,0) rotate(90,0,222)" style="font-family: 'Open sans', verdana, arial, sans-serif; font-size: 12px; fill: #444444; fill-opacity: 1; visibility: visible;" data-bb="7245">02/24</text></g><g class="xtick" data-bb="7277"><text text-anchor="start" x="0" y="228" transform="translate(239.73,0) rotate(90,0,222)" style="font-family: 'Open sans', verdana, arial, sans-serif; font-size: 12px; fill: #444444; fill-opacity: 1; visibility: visible;" data-bb="7246">02/25</text></g><g class="xtick" data-bb="7278"><text text-anchor="start" x="0" y="228" transform="translate(255.2,0) rotate(90,0,222)" style="font-family: 'Open sans', verdana, arial, sans-serif; font-size: 12px; fill: #444444; fill-opacity: 1; visibility: visible;" data-bb="7247">02/26</text></g><g class="xtick" data-bb="7279"><text text-anchor="start" x="0" y="228" transform="translate(270.67,0) rotate(90,0,222)" style="font-family: 'Open sans', verdana, arial, sans-serif; font-size: 12px; fill: #444444; fill-opacity: 1; visibility: visible;" data-bb="7248">02/27</text></g><g class="xtick" data-bb="7280"><text text-anchor="start" x="0" y="228" transform="translate(286.13,0) rotate(90,0,222)" style="font-family: 'Open sans', verdana, arial, sans-serif; font-size: 12px; fill: #444444; fill-opacity: 1; visibility: visible;" data-bb="7249">02/28</text></g><g class="xtick" data-bb="7281"><text text-anchor="start" x="0" y="228" transform="translate(301.6,0) rotate(90,0,222)" style="font-family: 'Open sans', verdana, arial, sans-serif; font-size: 12px; fill: #444444; fill-opacity: 1; visibility: visible;" data-bb="7250">03/01</text></g><g class="xtick" data-bb="7282"><text text-anchor="start" x="0" y="228" transform="translate(317.07,0) rotate(90,0,222)" style="font-family: 'Open sans', verdana, arial, sans-serif; font-size: 12px; fill: #444444; fill-opacity: 1; visibility: visible;" data-bb="7251">03/02</text></g><g class="xtick" data-bb="7283"><text text-anchor="start" x="0" y="228" transform="translate(332.53,0) rotate(90,0,222)" style="font-family: 'Open sans', verdana, arial, sans-serif; font-size: 12px; fill: #444444; fill-opacity: 1; visibility: visible;" data-bb="7252">03/03</text></g><g class="xtick" data-bb="7284"><text text-anchor="start" x="0" y="228" transform="translate(348,0) rotate(90,0,222)" style="font-family: 'Open sans', verdana, arial, sans-serif; font-size: 12px; fill: #444444; fill-opacity: 1; visibility: visible;" data-bb="7253">03/04</text></g><g class="xtick" data-bb="7285"><text text-anchor="start" x="0" y="228" transform="translate(363.47,0) rotate(90,0,222)" style="font-family: 'Open sans', verdana, arial, sans-serif; font-size: 12px; fill: #444444; fill-opacity: 1; visibility: visible;" data-bb="7254">03/05</text></g><g class="xtick" data-bb="7286"><text text-anchor="start" x="0" y="228" transform="translate(378.93,0) rotate(90,0,222)" style="font-family: 'Open sans', verdana, arial, sans-serif; font-size: 12px; fill: #444444; fill-opacity: 1; visibility: visible;" data-bb="7255">03/06</text></g><g class="xtick" data-bb="7287"><text text-anchor="start" x="0" y="228" transform="translate(394.4,0) rotate(90,0,222)" style="font-family: 'Open sans', verdana, arial, sans-serif; font-size: 12px; fill: #444444; fill-opacity: 1; visibility: visible;" data-bb="7256">03/07</text></g><g class="xtick" data-bb="7288"><text text-anchor="start" x="0" y="228" transform="translate(409.87,0) rotate(90,0,222)" style="font-family: 'Open sans', verdana, arial, sans-serif; font-size: 12px; fill: #444444; fill-opacity: 1; visibility: visible;" data-bb="7257">03/08</text></g><g class="xtick" data-bb="7289"><text text-anchor="start" x="0" y="228" transform="translate(425.33,0) rotate(90,0,222)" style="font-family: 'Open sans', verdana, arial, sans-serif; font-size: 12px; fill: #444444; fill-opacity: 1; visibility: visible;" data-bb="7258">03/09</text></g><g class="xtick" data-bb="7290"><text text-anchor="start" x="0" y="228" transform="translate(440.8,0) rotate(90,0,222)" style="font-family: 'Open sans', verdana, arial, sans-serif; font-size: 12px; fill: #444444; fill-opacity: 1; visibility: visible;" data-bb="7259">03/10</text></g><g class="xtick" data-bb="7291"><text text-anchor="start" x="0" y="228" transform="translate(456.27,0) rotate(90,0,222)" style="font-family: 'Open sans', verdana, arial, sans-serif; font-size: 12px; fill: #444444; fill-opacity: 1; visibility: visible;" data-bb="7260">03/11</text></g></g><g transform="translate(40,30)"><g class="ytick"><text text-anchor="end" x="-6" y="6" transform="translate(0,210)" style="font-family: 'Open sans', verdana, arial, sans-serif; font-size: 12px; fill: #444444; fill-opacity: 1; visibility: visible;">0</text></g><g class="ytick"><text text-anchor="end" x="-6" y="6" transform="translate(0,170.1)" style="font-family: 'Open sans', verdana, arial, sans-serif; font-size: 12px; fill: #444444; fill-opacity: 1; visibility: visible;">5</text></g><g class="ytick"><text text-anchor="end" x="-6" y="6" transform="translate(0,130.2)" style="font-family: 'Open sans', verdana, arial, sans-serif; font-size: 12px; fill: #444444; fill-opacity: 1; visibility: visible;">10</text></g><g class="ytick"><text text-anchor="end" x="-6" y="6" transform="translate(0,90.3)" style="font-family: 'Open sans', verdana, arial, sans-serif; font-size: 12px; fill: #444444; fill-opacity: 1; visibility: visible;">15</text></g><g class="ytick"><text text-anchor="end" x="-6" y="6" transform="translate(0,50.4)" style="font-family: 'Open sans', verdana, arial, sans-serif; font-size: 12px; fill: #444444; fill-opacity: 1; visibility: visible;">20</text></g><g class="ytick"><text text-anchor="end" x="-6" y="6" transform="translate(0,10.5)" style="font-family: 'Open sans', verdana, arial, sans-serif; font-size: 12px; fill: #444444; fill-opacity: 1; visibility: visible;">25</text></g></g><g></g></g><g transform="translate(40,30)"></g><g class="shapelayer" style="pointer-events: none;"></g><g class="infolayer"><g class="g-gtitle"><text class="gtitle" x="300" y="15" text-anchor="middle" style="font-family: 'Open sans', verdana, arial, sans-serif; font-size: 17px; fill: #444444; opacity: 1; visibility: visible;">30 Day Activity</text></g><g class="g-xtitle" data-bb="7261" transform="translate(0,4)"></g><g class="g-ytitle" data-bb="7292" transform="translate(19,0)"><text class="ytitle" transform="rotate(-90,-2,135) translate(0, 0)" x="-2" y="135" text-anchor="middle" style="font-family: 'Open sans', verdana, arial, sans-serif; font-size: 16px; fill: #6b6b6b; opacity: 1; visibility: visible;">Reps</text></g><svg class="legend" x="513" y="30" width="75" height="48"><rect class="bg" x="0" y="0" width="75" height="48" style="stroke: #444444; stroke-opacity: 1; fill: #ffffff; fill-opacity: 1; stroke-width: 0px;"></rect><g class="traces" transform="translate(0,14.5)" style="opacity: 1;"><g class="legendfill"></g><g class="legendlines"></g><g class="legendsymbols" style="opacity: 1;"><g class="legendpoints"><path class="legendbar" d="M6,6H-6V-6H6Z" transform="translate(20,0)" style="stroke-width: 0px; fill: #00cc66; fill-opacity: 1;"></path></g></g><text class="legendtext" x="40" y="4.680000000000001" style="text-anchor: start; font-family: 'Open sans', verdana, arial, sans-serif; font-size: 12px; fill: #444444; fill-opacity: 1; visibility: visible;" data-bb="7229">Good</text><rect class="legendtoggle" x="0" y="-9.5" height="19" width="70" style="cursor: pointer; fill: #000000; fill-opacity: 0;"></rect></g><g class="traces" transform="translate(0,33.5)" style="opacity: 1;"><g class="legendfill"></g><g class="legendlines"></g><g class="legendsymbols" style="opacity: 1;"><g class="legendpoints"><path class="legendbar" d="M6,6H-6V-6H6Z" transform="translate(20,0)" style="stroke-width: 0px; fill: #cc0000; fill-opacity: 1;"></path></g></g><text class="legendtext" x="40" y="4.680000000000001" style="text-anchor: start; font-family: 'Open sans', verdana, arial, sans-serif; font-size: 12px; fill: #444444; fill-opacity: 1; visibility: visible;" data-bb="7230">Ok</text><rect class="legendtoggle" x="0" y="-9.5" height="19" width="70" style="cursor: pointer; fill: #000000; fill-opacity: 0;"></rect></g></svg></g><g class="hoverlayer" style="pointer-events: none;"></g><text class="js-plot-link-container" y="291" text-anchor="end" x="593" style="font-family: 'Open Sans', Arial, sans-serif; font-size: 12px; fill: #444444;"><tspan class="js-link-to-tool"></tspan><tspan class="js-link-spacer"></tspan><tspan class="js-sourcelinks"></tspan></text></svg>