<svg xmlns="http://www.w3.org/2000/svg" xmlns:xlink="http://www.w3.org/1999/xlink" xml:space="preserve" width="400" height="300"><rect x="0" y="0" width="400" height="300" style="fill: #ffffff; fill-opacity: 1;"></rect><defs id="defs-bf2a3c"><g class="clips"><clipPath class="axesclip" id="clipbf2a3cx"><rect x="55" y="0" width="241" height="300"></rect></clipPath><clipPath class="axesclip" id="clipbf2a3cy"><rect x="0" y="30" width="400" height="225"></rect></clipPath><clipPath class="axesclip" id="clipbf2a3cxy"><rect x="55" y="30" width="241" height="225"></rect></clipPath></g></defs><g class="subplot xy"><rect x="51" y="26" width="249" height="233" style="stroke-width: 0px; fill: #ffffff; fill-opacity: 1;"></rect><g transform="translate(55,30)"><path class="xgrid crisp" d="M0,0v225" transform="translate(49.18,0)" style="stroke: #eeeeee; stroke-opacity: 1; stroke-width: 1px;"></path><path class="xgrid crisp" d="M0,0v225" transform="translate(98.37,0)" style="stroke: #eeeeee; stroke-opacity: 1; stroke-width: 1px;"></path><path class="xgrid crisp" d="M0,0v225" transform="translate(147.55,0)" style="stroke: #eeeeee; stroke-opacity: 1; stroke-width: 1px;"></path><path class="xgrid crisp" d="M0,0v225" transform="translate(196.73,0)" style="stroke: #eeeeee; stroke-opacity: 1; stroke-width: 1px;"></path><path class="ygrid crisp" d="M0,0h241" transform="translate(0,202.5)" style="stroke: #eeeeee; stroke-opacity: 1; stroke-width: 1px;"></path><path class="ygrid crisp" d="M0,0h241" transform="translate(0,157.5)" style="stroke: #eeeeee; stroke-opacity: 1; stroke-width: 1px;"></path><path class="ygrid crisp" d="M0,0h241" transform="translate(0,112.5)" style="stroke: #eeeeee; stroke-opacity: 1; stroke-width: 1px;"></path><path class="ygrid crisp" d="M0,0h241" transform="translate(0,67.5)" style="stroke: #eeeeee; stroke-opacity: 1; stroke-width: 1px;"></path></g><g></g><g transform="translate(55,30)"><path class="xzl zl crisp" d="M0,0v225" transform="translate(0,0)" style="stroke: #444444; stroke-opacity: 1; stroke-width: 1px;"></path><path class="yzl zl crisp" d="M0,0h241" transform="translate(0,22.5)" style="stroke: #444444; stroke-opacity: 1; stroke-width: 1px;"></path></g><g></g><svg preserveAspectRatio="none" x="55" y="30" width="241" height="225" viewBox="0 0 241 225" style="fill: none;"><g class="maplayer"></g><g class="barlayer"></g><g class="errorlayer"><g class="errorbars"></g><g class="errorbars"></g><g class="errorbars"></g><g class="errorbars"></g><g class="errorbars"></g><g class="errorbars"></g><g class="errorbars"></g><g class="errorbars"></g><g class="errorbars"></g><g class="errorbars"></g><g class="errorbars"></g><g class="errorbars"></g><g class="errorbars"></g><g class="errorbars"></g><g class="errorbars"></g><g class="errorbars"></g><g class="errorbars"></g><g class="errorbars"></g><g class="errorbars"></g><g class="errorbars"></g><g class="errorbars"></g></g><g class="boxlayer"></g><g class="scatterlayer"><g class="trace scatter" style="stroke-miterlimit: 2; opacity: 1;"><path class="js-line" d="M0,22.5L4.92,32.18L9.84,53.71L14.76,77.11L19.67,96.2L24.59,124.32L29.51,148.66L34.43,171.82L39.35,190.58L44.27,190.58L49.18,210.69L54.1,210.69L59.02,205.18L63.94,205.18L68.86,194.49L73.78,180.96L78.69,165.16L83.61,147.08L88.53,127.09L93.45,102.51L98.37,74.99L103.29,46.01L108.2,22.32L113.12,19.87" style="fill: none; stroke: #969696; stroke-opacity: 1; stroke-width: 2px;"></path></g><g class="trace scatter" style="stroke-miterlimit: 2; opacity: 1;"><path class="js-line" d="M0,22.5L4.92,22.5L9.84,23.08L14.76,23.45L19.67,23.45L24.59,23.37L29.51,30.04L34.43,30.04L39.35,35.54L44.27,38.39L49.18,38.68L54.1,37.64L59.02,35.71L63.94,34.35L68.86,34.58L73.78,37.93L78.69,42.45L83.61,49.45L88.53,62.24L93.45,80.3L98.37,99.88L103.29,99.88L108.2,137.74L113.12,137.74L118.04,167.98L122.96,167.98L127.88,174.94L132.8,175.66L137.71,171.32L142.63,162.75L147.55,151.4L152.47,136.87L157.39,119.7L162.31,101.43L167.22,82.01L172.14,63.4L177.06,45.86L181.98,34L186.9,33.08" style="fill: none; stroke: #9e0142; stroke-opacity: 1; stroke-width: 2px;"></path></g><g class="trace scatter" style="stroke-miterlimit: 2; opacity: 1;"><path class="js-line" d="M0,22.5L4.92,29.36L9.84,41.61L14.76,41.61L19.67,76.89L24.59,76.89L29.51,97.28L34.43,116.47L39.35,134.06L44.27,150.28L49.18,162.21L54.1,168.23L59.02,168.13L63.94,162.24L68.86,152.46L73.78,140.14L78.69,125.34L83.61,107.73L88.53,88.62L93.45,69.09L98.37,50.24L103.29,50.24L108.2,13.92L113.12,13.92L118.04,7.53" style="fill: none; stroke: #d53e4f; stroke-opacity: 1; stroke-width: 2px;"></path></g><g class="trace scatter" style="stroke-miterlimit: 2; opacity: 1;"><path class="js-line" d="M0,22.5L4.92,25.24L9.84,37.64L14.76,37.64L19.67,50.89L24.59,66.48L29.51,84.48L34.43,103.15L39.35,123.13L44.27,142.51L49.18,160.26L54.1,173.44L59.02,181.17L63.94,182.88L68.86,178.75L73.78,169.86L78.69,157.68L83.61,157.68L88.53,126.86L93.45,126.86L98.37,109.1L103.29,90.64L108.2,72.85L113.12,56.83L118.04,40.87L122.96,27.78L127.88,26.33" style="fill: none; stroke: #f46d43; stroke-opacity: 1; stroke-width: 2px;"></path></g><g class="trace scatter" style="stroke-miterlimit: 2; opacity: 1;"><path class="js-line" d="M0,22.5L4.92,26.58L9.84,34.24L14.76,50.72L19.67,65.06L24.59,82.58L29.51,101.05L34.43,121.37L39.35,141.54L44.27,141.54L49.18,169.8L54.1,169.8L59.02,175.18L63.94,173.96L68.86,157.28L73.78,157.28L78.69,144.57L83.61,129.45L88.53,112.71L93.45,94.56L98.37,76.06L103.29,57.73L108.2,38.25L113.12,20.28L118.04,18.8" style="fill: none; stroke: #fdae61; stroke-opacity: 1; stroke-width: 2px;"></path></g><g class="trace scatter" style="stroke-miterlimit: 2; opacity: 1;"><path class="js-line" d="M0,22.5L4.92,26L9.84,33.64L14.76,47.71L19.67,62.1L24.59,62.1L29.51,102.15L34.43,102.15L39.35,121.98L44.27,140.43L49.18,157.08L54.1,168.8L59.02,174.33L63.94,173.57L68.86,167.42L73.78,157.56L78.69,144.92L83.61,129.68L88.53,112.75L93.45,94.54L98.37,75.2L103.29,55.86L108.2,37.04L113.12,37.04L118.04,20.01" style="fill: none; stroke: #fee08b; stroke-opacity: 1; stroke-width: 2px;"></path></g><g class="trace scatter" style="stroke-miterlimit: 2; opacity: 1;"><path class="js-line" d="M0,22.5L4.92,22.5L9.84,23.79L14.76,28.11L19.67,50.91L24.59,50.91L29.51,68.19L34.43,86.75L39.35,108.41L44.27,129.53L49.18,149.01L54.1,164.78L59.02,175.15L63.94,179.73L68.86,177.34L73.78,170.9L78.69,161.4L83.61,149.24L88.53,134.7L93.45,134.7L98.37,100.1L103.29,100.1L108.2,81.36L113.12,62.84L118.04,44.64L122.96,28.06L127.88,22.75" style="fill: none; stroke: #e6f598; stroke-opacity: 1; stroke-width: 2px;"></path></g><g class="trace scatter" style="stroke-miterlimit: 2; opacity: 1;"><path class="js-line" d="M0,22.5L4.92,23.69L9.84,23.95L14.76,25.27L19.67,30.98L24.59,42.77L29.51,58.02L34.43,76.04L39.35,96.31L44.27,117.26L49.18,137.59L54.1,137.59L59.02,170.22L63.94,170.22L68.86,179.49L73.78,183.36L78.69,173.91L83.61,173.91L88.53,162.91L93.45,149.62L98.37,134.44L103.29,118.23L108.2,102.24L113.12,84.4L118.04,65.53L122.96,46.02L127.88,26.48L132.8,17.91" style="fill: none; stroke: #abdda4; stroke-opacity: 1; stroke-width: 2px;"></path></g><g class="trace scatter" style="stroke-miterlimit: 2; opacity: 1;"><path class="js-line" d="M0,22.5L4.92,23.15L9.84,23.53L14.76,25.51L19.67,25.51L24.59,46.54L29.51,46.54L34.43,65.93L39.35,82.34L44.27,102.32L49.18,120.86L54.1,139.29L59.02,156.82L63.94,170.68L68.86,178.6L73.78,182.19L78.69,181.52L83.61,175.69L88.53,165.93L93.45,153.55L98.37,139.36L103.29,124.21L108.2,124.21L113.12,88.07L118.04,88.07L122.96,67.6L127.88,47.53L132.8,17.86" style="fill: none; stroke: #66c2a5; stroke-opacity: 1; stroke-width: 2px;"></path></g><g class="trace scatter" style="stroke-miterlimit: 2; opacity: 1;"><path class="js-line" d="M0,22.5L4.92,22.5L9.84,24.85L14.76,24.34L19.67,24.54L24.59,25.02L29.51,30.81L34.43,39.85L39.35,53.07L44.27,67.42L49.18,84.28L54.1,101.37L59.02,119.93L63.94,135.89L68.86,149.56L73.78,149.56L78.69,172.6L83.61,172.6L88.53,178.11L93.45,177.47L98.37,171.24L103.29,161.49L108.2,149.25L113.12,135.15L118.04,119.14L122.96,101.07L127.88,81.49L132.8,61.28L137.71,41.6L142.63,27.58L147.55,23.3L152.47,22.96L157.39,22.53" style="fill: none; stroke: #3288bd; stroke-opacity: 1; stroke-width: 2px;"></path></g><g class="trace scatter" style="stroke-miterlimit: 2; opacity: 1;"><path class="js-line" d="M0,22.5L4.92,22.5L9.84,25.86L14.76,25.86L19.67,32.74L24.59,44.6L29.51,77.2L34.43,77.2L39.35,95.84L44.27,116.01L49.18,134.31L54.1,152.45L59.02,167.16L63.94,177.57L68.86,179.85L73.78,175.01L78.69,166.07L83.61,154.17L88.53,140.35L93.45,124.72L98.37,107.96L103.29,107.96L108.2,70.97L113.12,70.97L118.04,52.13L122.96,34.24L127.88,21.32L132.8,20.67L137.71,20.41" style="fill: none; stroke: #5e4fa2; stroke-opacity: 1; stroke-width: 2px;"></path></g><g class="trace scatter" style="stroke-miterlimit: 2; opacity: 1;"><path class="js-line" d="M0,22.5L4.92,23.25L9.84,22.56L14.76,23.44L19.67,23.57L24.59,24.89L29.51,29.3L34.43,35.79L39.35,46.24L44.27,59.08L49.18,73.86L54.1,73.86L59.02,107.56L63.94,107.56L68.86,124.84L73.78,140.44L78.69,163.01L83.61,163.01L88.53,170.54L93.45,175.14L98.37,175.28L103.29,170.79L108.2,162.59L113.12,150.9L118.04,137.98L122.96,124.53L127.88,110.76L132.8,97.04L137.71,82.9L142.63,67.36L147.55,51.34L152.47,51.34L157.39,18.75" style="fill: none; stroke: #9e0142; stroke-opacity: 1; stroke-width: 2px;"></path></g><g class="trace scatter" style="stroke-miterlimit: 2; opacity: 1;"><path class="js-line" d="M0,22.5L4.92,22.5L9.84,24.91L14.76,24.59L19.67,24.23L24.59,24.79L54.1,25.26L59.02,27.11L63.94,32.79L68.86,40.31L73.78,50.65L78.69,62.65L83.61,62.65L88.53,90.67L93.45,90.67L98.37,106.29L103.29,123.39L108.2,158.98L113.12,158.98L118.04,173.75L122.96,187.12L127.88,198.62L132.8,206.81L137.71,208.08L142.63,201.35L147.55,190.98L152.47,178.31L157.39,164.66L162.31,150.33L167.22,135.39L172.14,119.85L177.06,104.35L181.98,104.35L186.9,72.36L191.82,72.36L196.73,54.65L201.65,37.55L206.57,23.28L211.49,20.39" style="fill: none; stroke: #d53e4f; stroke-opacity: 1; stroke-width: 2px;"></path></g><g class="trace scatter" style="stroke-miterlimit: 2; opacity: 1;"><path class="js-line" d="M0,22.5L4.92,24.94L9.84,24.13L14.76,24.14L19.67,24.49L24.59,24.68L29.51,24.72L34.43,26.3L39.35,29.67L44.27,35.37L49.18,45.45L54.1,57.83L59.02,57.83L63.94,83.79L68.86,83.79L73.78,96.83L78.69,111.12L83.61,139.06L88.53,139.06L93.45,151.32L98.37,161.12L103.29,167.3L108.2,168.86L113.12,166.91L118.04,161.63L122.96,152.96L127.88,141.62L132.8,128.46L137.71,114.49L142.63,100.28L147.55,86.74L152.47,74.63L157.39,74.63L162.31,51.88L167.22,51.88L172.14,40.73L177.06,29.91L181.98,24.18L186.9,25.07L191.82,24.68L196.73,25.09L201.65,24.61L206.57,24.29L211.49,24.09L216.41,23.7L221.33,23.72L226.24,23.51L231.16,23.22" style="fill: none; stroke: #f46d43; stroke-opacity: 1; stroke-width: 2px;"></path></g><g class="trace scatter" style="stroke-miterlimit: 2; opacity: 1;"><path class="js-line" d="M0,22.5L4.92,25.85L9.84,31.76L14.76,31.76L19.67,52.84L24.59,52.84L29.51,66.17L34.43,81.18L39.35,114.73L44.27,114.73L49.18,129.55L54.1,141.67L59.02,151.85L63.94,158.92L68.86,161.54L73.78,159.32L78.69,153.17L83.61,144.44L88.53,133.89L93.45,121.89L98.37,109.32L103.29,96.42L108.2,83.86L113.12,83.86L118.04,57.8L122.96,57.8L127.88,44.4L132.8,32.23L137.71,23.52L142.63,23.6L147.55,23.48" style="fill: none; stroke: #fdae61; stroke-opacity: 1; stroke-width: 2px;"></path></g><g class="trace scatter" style="stroke-miterlimit: 2; opacity: 1;"><path class="js-line" d="M0,22.5L4.92,23.29L9.84,23.37L14.76,23.91L19.67,24.18L24.59,24.45L29.51,24.71L34.43,26.67L39.35,31.63L44.27,41.58L49.18,53.12L54.1,53.12L59.02,80.35L63.94,80.35L68.86,95.67L73.78,109.68L78.69,132.77L83.61,132.77L88.53,138.77L93.45,140.44L98.37,137.46L103.29,131.18L108.2,123.12L113.12,113.3L118.04,102.31L122.96,89.97L127.88,75.73L132.8,60.56L137.71,46.98L142.63,34.78L147.55,24.28" style="fill: none; stroke: #fee08b; stroke-opacity: 1; stroke-width: 2px;"></path></g><g class="trace scatter" style="stroke-miterlimit: 2; opacity: 1;"><path class="js-line" d="M0,22.5L4.92,22.5L9.84,23.46L14.76,23.46L19.67,23.09L24.59,23.69L29.51,24.05L34.43,24.84L39.35,24.81L44.27,25.3L49.18,25.36L54.1,25.28L59.02,24.38L63.94,27.7L68.86,35.63L73.78,46.89L78.69,58.19L83.61,71.17L88.53,83.87L93.45,83.87L98.37,109.68L103.29,109.68L108.2,121.04L113.12,128.32L118.04,131.77L122.96,131.77L127.88,127.96L132.8,121.6L137.71,113.16L142.63,102.5L147.55,90.47L152.47,77.27L157.39,63.87L162.31,50.62L167.22,38.06L172.14,26.94L177.06,18.84" style="fill: none; stroke: #e6f598; stroke-opacity: 1; stroke-width: 2px;"></path></g><g class="trace scatter" style="stroke-miterlimit: 2; opacity: 1;"><path class="js-line" d="M0,22.5L4.92,22.67L9.84,23.31L14.76,23.31L19.67,23.94L24.59,23.94L59.02,23.9L63.94,26.91L68.86,33.6L73.78,43.34L78.69,55.98L83.61,71L88.53,87.53L93.45,103.57L98.37,118.45L103.29,118.45L108.2,138.32L113.12,138.32L118.04,144.26L122.96,147.26L127.88,143.05L132.8,143.05L137.71,136.16L142.63,126.53L147.55,114.68L152.47,100.39L157.39,85.89L162.31,71.8L167.22,57.51L172.14,43.95L177.06,31.21L181.98,19.4L186.9,17.14L191.82,19.6L196.73,19.22L201.65,19.22L206.57,20.58L211.49,20.58L216.41,21.29L221.33,20.5L226.24,19.53L231.16,18.5L236.08,17.35L241,17.12" style="fill: none; stroke: #abdda4; stroke-opacity: 1; stroke-width: 2px;"></path></g><g class="trace scatter" style="stroke-miterlimit: 2; opacity: 1;"><path class="js-line" d="M0,22.5L4.92,25.4L9.84,33.45L14.76,45.79L19.67,58.54L24.59,74.76L29.51,91.11L34.43,106.98L39.35,122.51L44.27,136.77L49.18,136.77L54.1,158.28L59.02,158.28L63.94,165.86L68.86,170.78L73.78,170.01L78.69,170.01L83.61,164.54L88.53,155.45L93.45,143.7L98.37,132.32L103.29,121.17L108.2,110.21L113.12,98.55L118.04,85.65L122.96,71.33L127.88,56.28L132.8,42.97L137.71,30.99L142.63,21.85L147.55,21.85L152.47,24.83L157.39,24.83L162.31,25.37L167.22,26.35L172.14,26.61L177.06,26.83L181.98,26.04L186.9,24.8L191.82,21.73L196.73,18.6" style="fill: none; stroke: #66c2a5; stroke-opacity: 1; stroke-width: 2px;"></path></g><g class="trace scatter" style="stroke-miterlimit: 2; opacity: 1;"><path class="js-line" d="M0,22.5L4.92,23.86L9.84,30.53L14.76,41.45L19.67,55.2L24.59,69.05L29.51,83.8L34.43,98.99L39.35,98.99L44.27,134.91L49.18,134.91L54.1,147.17L59.02,155.77L63.94,162.25L68.86,162.25L73.78,159.72L78.69,154.97L83.61,147.98L88.53,138.11L93.45,126.7L98.37,114.83L103.29,102.96L108.2,91.84L113.12,81.41L118.04,70.13L122.96,58.31L127.88,46.96L132.8,35.73L137.71,35.73L142.63,26.92" style="fill: none; stroke: #3288bd; stroke-opacity: 1; stroke-width: 2px;"></path></g><g class="trace scatter" style="stroke-miterlimit: 2; opacity: 1;"><path class="js-line" d="M0,22.5L4.92,22.5L9.84,24.34L14.76,24.51L19.67,25.68L24.59,25.61L49.18,24.66L54.1,29.58L59.02,38.36L63.94,50.29L68.86,64.49L73.78,78L78.69,90.64L83.61,90.64L88.53,117.04L93.45,117.04L98.37,127.67L103.29,136.04L108.2,145.23L113.12,145.23L118.04,143.93L122.96,139.82L127.88,134.02L132.8,126.26L137.71,117.06L142.63,106.44L147.55,94.42L152.47,82.13L157.39,68.94L162.31,55.08L167.22,42.56L172.14,33.98L177.06,29.86L181.98,29.86L186.9,31.17L191.82,31.17L196.73,30.57L201.65,30.24L206.57,30.06L211.49,27.89L216.41,27.35" style="fill: none; stroke: #5e4fa2; stroke-opacity: 1; stroke-width: 2px;"></path></g></g></svg><g></g><path class="crisp" transform="translate(55,30)" d="M-5,229.5h251" style="fill: none; stroke-width: 1px; stroke: #000000; stroke-opacity: 0;"></path><path class="crisp" transform="translate(55,30)" d="M-4.5,-5v234" stroke-width="1px" style="fill: none; stroke: #000000; stroke-opacity: 0;"></path><g></g><g transform="translate(55,30)"><g class="xtick"><text text-anchor="middle" x="0" y="243" transform="translate(0,0)" style="font-family: 'Open sans', verdana, arial, sans-serif; font-size: 12px; fill: #444444; fill-opacity: 1; visibility: visible;" data-bb="3510">0</text></g><g class="xtick"><text text-anchor="middle" x="0" y="243" transform="translate(49.18,0)" style="font-family: 'Open sans', verdana, arial, sans-serif; font-size: 12px; fill: #444444; fill-opacity: 1; visibility: visible;" data-bb="3511">0.5</text></g><g class="xtick"><text text-anchor="middle" x="0" y="243" transform="translate(98.37,0)" style="font-family: 'Open sans', verdana, arial, sans-serif; font-size: 12px; fill: #444444; fill-opacity: 1; visibility: visible;" data-bb="3512">1</text></g><g class="xtick"><text text-anchor="middle" x="0" y="243" transform="translate(147.55,0)" style="font-family: 'Open sans', verdana, arial, sans-serif; font-size: 12px; fill: #444444; fill-opacity: 1; visibility: visible;" data-bb="3513">1.5</text></g><g class="xtick"><text text-anchor="middle" x="0" y="243" transform="translate(196.73,0)" style="font-family: 'Open sans', verdana, arial, sans-serif; font-size: 12px; fill: #444444; fill-opacity: 1; visibility: visible;" data-bb="3514">2</text></g></g><g transform="translate(55,30)"><g class="ytick"><text text-anchor="end" x="-6" y="6" transform="translate(0,202.5)" style="font-family: 'Open sans', verdana, arial, sans-serif; font-size: 12px; fill: #444444; fill-opacity: 1; visibility: visible;">−80</text></g><g class="ytick"><text text-anchor="end" x="-6" y="6" transform="translate(0,157.5)" style="font-family: 'Open sans', verdana, arial, sans-serif; font-size: 12px; fill: #444444; fill-opacity: 1; visibility: visible;">−60</text></g><g class="ytick"><text text-anchor="end" x="-6" y="6" transform="translate(0,112.5)" style="font-family: 'Open sans', verdana, arial, sans-serif; font-size: 12px; fill: #444444; fill-opacity: 1; visibility: visible;">−40</text></g><g class="ytick"><text text-anchor="end" x="-6" y="6" transform="translate(0,67.5)" style="font-family: 'Open sans', verdana, arial, sans-serif; font-size: 12px; fill: #444444; fill-opacity: 1; visibility: visible;">−20</text></g><g class="ytick"><text text-anchor="end" x="-6" y="6" transform="translate(0,22.5)" style="font-family: 'Open sans', verdana, arial, sans-serif; font-size: 12px; fill: #444444; fill-opacity: 1; visibility: visible;">0</text></g></g><g></g></g><g transform="translate(55,30)"></g><g class="shapelayer" style="pointer-events: none;"></g><g class="infolayer"><g class="g-gtitle"><text class="gtitle" x="200" y="15" text-anchor="middle" style="font-family: 'Open sans', verdana, arial, sans-serif; font-size: 17px; fill: #444444; opacity: 1; visibility: visible;">Last Set of Reps</text></g><g class="g-xtitle" data-bb="3515" transform="translate(0,-18)"><text class="xtitle" x="175.5" y="313" text-anchor="middle" style="font-family: 'Open sans', verdana, arial, sans-serif; font-size: 16px; fill: #6b6b6b; opacity: 1; visibility: visible;">Duration (seconds)</text></g><g class="g-ytitle" data-bb="3516" transform="translate(4,0)"><text class="ytitle" transform="rotate(-90,13,142.5) translate(0, 0)" x="13" y="142.5" text-anchor="middle" style="font-family: 'Open sans', verdana, arial, sans-serif; font-size: 16px; fill: #6b6b6b; opacity: 1; visibility: visible;">Pitch (degrees)</text></g><svg class="legend" x="301" y="30" width="87" height="409"><rect class="bg" x="0" y="0" width="87" height="409" style="stroke: #444444; stroke-opacity: 1; fill: #ffffff; fill-opacity: 1; stroke-width: 0px;"></rect><g class="traces" transform="translate(0,14.5)" style="opacity: 1;"><g class="legendfill"></g><g class="legendlines"><path class="js-line" d="M5,0h30" style="fill: none; stroke: #969696; stroke-opacity: 1; stroke-width: 2px;"></path></g><g class="legendsymbols" style="opacity: 1;"><g class="legendpoints"></g></g><text class="legendtext" x="40" y="4.680000000000001" style="text-anchor: start; font-family: 'Open sans', verdana, arial, sans-serif; font-size: 12px; fill: #444444; fill-opacity: 1; visibility: visible;" data-bb="3489">optimal</text><rect class="legendtoggle" x="0" y="-9.5" height="19" width="82" style="cursor: pointer; fill: #000000; fill-opacity: 0;"></rect></g><g class="traces" transform="translate(0,33.5)" style="opacity: 1;"><g class="legendfill"></g><g class="legendlines"><path class="js-line" d="M5,0h30" style="fill: none; stroke: #9e0142; stroke-opacity: 1; stroke-width: 2px;"></path></g><g class="legendsymbols" style="opacity: 1;"><g class="legendpoints"></g></g><text class="legendtext" x="40" y="4.680000000000001" style="text-anchor: start; font-family: 'Open sans', verdana, arial, sans-serif; font-size: 12px; fill: #444444; fill-opacity: 1; visibility: visible;" data-bb="3490">1</text><rect class="legendtoggle" x="0" y="-9.5" height="19" width="82" style="cursor: pointer; fill: #000000; fill-opacity: 0;"></rect></g><g class="traces" transform="translate(0,52.5)" style="opacity: 1;"><g class="legendfill"></g><g class="legendlines"><path class="js-line" d="M5,0h30" style="fill: none; stroke: #d53e4f; stroke-opacity: 1; stroke-width: 2px;"></path></g><g class="legendsymbols" style="opacity: 1;"><g class="legendpoints"></g></g><text class="legendtext" x="40" y="4.680000000000001" style="text-anchor: start; font-family: 'Open sans', verdana, arial, sans-serif; font-size: 12px; fill: #444444; fill-opacity: 1; visibility: visible;" data-bb="3491">2</text><rect class="legendtoggle" x="0" y="-9.5" height="19" width="82" style="cursor: pointer; fill: #000000; fill-opacity: 0;"></rect></g><g class="traces" transform="translate(0,71.5)" style="opacity: 1;"><g class="legendfill"></g><g class="legendlines"><path class="js-line" d="M5,0h30" style="fill: none; stroke: #f46d43; stroke-opacity: 1; stroke-width: 2px;"></path></g><g class="legendsymbols" style="opacity: 1;"><g class="legendpoints"></g></g><text class="legendtext" x="40" y="4.680000000000001" style="text-anchor: start; font-family: 'Open sans', verdana, arial, sans-serif; font-size: 12px; fill: #444444; fill-opacity: 1; visibility: visible;" data-bb="3492">3</text><rect class="legendtoggle" x="0" y="-9.5" height="19" width="82" style="cursor: pointer; fill: #000000; fill-opacity: 0;"></rect></g><g class="traces" transform="translate(0,90.5)" style="opacity: 1;"><g class="legendfill"></g><g class="legendlines"><path class="js-line" d="M5,0h30" style="fill: none; stroke: #fdae61; stroke-opacity: 1; stroke-width: 2px;"></path></g><g class="legendsymbols" style="opacity: 1;"><g class="legendpoints"></g></g><text class="legendtext" x="40" y="4.680000000000001" style="text-anchor: start; font-family: 'Open sans', verdana, arial, sans-serif; font-size: 12px; fill: #444444; fill-opacity: 1; visibility: visible;" data-bb="3493">4</text><rect class="legendtoggle" x="0" y="-9.5" height="19" width="82" style="cursor: pointer; fill: #000000; fill-opacity: 0;"></rect></g><g class="traces" transform="translate(0,109.5)" style="opacity: 1;"><g class="legendfill"></g><g class="legendlines"><path class="js-line" d="M5,0h30" style="fill: none; stroke: #fee08b; stroke-opacity: 1; stroke-width: 2px;"></path></g><g class="legendsymbols" style="opacity: 1;"><g class="legendpoints"></g></g><text class="legendtext" x="40" y="4.680000000000001" style="text-anchor: start; font-family: 'Open sans', verdana, arial, sans-serif; font-size: 12px; fill: #444444; fill-opacity: 1; visibility: visible;" data-bb="3494">5</text><rect class="legendtoggle" x="0" y="-9.5" height="19" width="82" style="cursor: pointer; fill: #000000; fill-opacity: 0;"></rect></g><g class="traces" transform="translate(0,128.5)" style="opacity: 1;"><g class="legendfill"></g><g class="legendlines"><path class="js-line" d="M5,0h30" style="fill: none; stroke: #e6f598; stroke-opacity: 1; stroke-width: 2px;"></path></g><g class="legendsymbols" style="opacity: 1;"><g class="legendpoints"></g></g><text class="legendtext" x="40" y="4.680000000000001" style="text-anchor: start; font-family: 'Open sans', verdana, arial, sans-serif; font-size: 12px; fill: #444444; fill-opacity: 1; visibility: visible;" data-bb="3495">6</text><rect class="legendtoggle" x="0" y="-9.5" height="19" width="82" style="cursor: pointer; fill: #000000; fill-opacity: 0;"></rect></g><g class="traces" transform="translate(0,147.5)" style="opacity: 1;"><g class="legendfill"></g><g class="legendlines"><path class="js-line" d="M5,0h30" style="fill: none; stroke: #abdda4; stroke-opacity: 1; stroke-width: 2px;"></path></g><g class="legendsymbols" style="opacity: 1;"><g class="legendpoints"></g></g><text class="legendtext" x="40" y="4.680000000000001" style="text-anchor: start; font-family: 'Open sans', verdana, arial, sans-serif; font-size: 12px; fill: #444444; fill-opacity: 1; visibility: visible;" data-bb="3496">7</text><rect class="legendtoggle" x="0" y="-9.5" height="19" width="82" style="cursor: pointer; fill: #000000; fill-opacity: 0;"></rect></g><g class="traces" transform="translate(0,166.5)" style="opacity: 1;"><g class="legendfill"></g><g class="legendlines"><path class="js-line" d="M5,0h30" style="fill: none; stroke: #66c2a5; stroke-opacity: 1; stroke-width: 2px;"></path></g><g class="legendsymbols" style="opacity: 1;"><g class="legendpoints"></g></g><text class="legendtext" x="40" y="4.680000000000001" style="text-anchor: start; font-family: 'Open sans', verdana, arial, sans-serif; font-size: 12px; fill: #444444; fill-opacity: 1; visibility: visible;" data-bb="3497">8</text><rect class="legendtoggle" x="0" y="-9.5" height="19" width="82" style="cursor: pointer; fill: #000000; fill-opacity: 0;"></rect></g><g class="traces" transform="translate(0,185.5)" style="opacity: 1;"><g class="legendfill"></g><g class="legendlines"><path class="js-line" d="M5,0h30" style="fill: none; stroke: #3288bd; stroke-opacity: 1; stroke-width: 2px;"></path></g><g class="legendsymbols" style="opacity: 1;"><g class="legendpoints"></g></g><text class="legendtext" x="40" y="4.680000000000001" style="text-anchor: start; font-family: 'Open sans', verdana, arial, sans-serif; font-size: 12px; fill: #444444; fill-opacity: 1; visibility: visible;" data-bb="3498">9</text><rect class="legendtoggle" x="0" y="-9.5" height="19" width="82" style="cursor: pointer; fill: #000000; fill-opacity: 0;"></rect></g><g class="traces" transform="translate(0,204.5)" style="opacity: 1;"><g class="legendfill"></g><g class="legendlines"><path class="js-line" d="M5,0h30" style="fill: none; stroke: #5e4fa2; stroke-opacity: 1; stroke-width: 2px;"></path></g><g class="legendsymbols" style="opacity: 1;"><g class="legendpoints"></g></g><text class="legendtext" x="40" y="4.680000000000001" style="text-anchor: start; font-family: 'Open sans', verdana, arial, sans-serif; font-size: 12px; fill: #444444; fill-opacity: 1; visibility: visible;" data-bb="3499">10</text><rect class="legendtoggle" x="0" y="-9.5" height="19" width="82" style="cursor: pointer; fill: #000000; fill-opacity: 0;"></rect></g><g class="traces" transform="translate(0,223.5)" style="opacity: 1;"><g class="legendfill"></g><g class="legendlines"><path class="js-line" d="M5,0h30" style="fill: none; stroke: #9e0142; stroke-opacity: 1; stroke-width: 2px;"></path></g><g class="legendsymbols" style="opacity: 1;"><g class="legendpoints"></g></g><text class="legendtext" x="40" y="4.680000000000001" style="text-anchor: start; font-family: 'Open sans', verdana, arial, sans-serif; font-size: 12px; fill: #444444; fill-opacity: 1; visibility: visible;" data-bb="3500">11</text><rect class="legendtoggle" x="0" y="-9.5" height="19" width="82" style="cursor: pointer; fill: #000000; fill-opacity: 0;"></rect></g><g class="traces" transform="translate(0,242.5)" style="opacity: 1;"><g class="legendfill"></g><g class="legendlines"><path class="js-line" d="M5,0h30" style="fill: none; stroke: #d53e4f; stroke-opacity: 1; stroke-width: 2px;"></path></g><g class="legendsymbols" style="opacity: 1;"><g class="legendpoints"></g></g><text class="legendtext" x="40" y="4.680000000000001" style="text-anchor: start; font-family: 'Open sans', verdana, arial, sans-serif; font-size: 12px; fill: #444444; fill-opacity: 1; visibility: visible;" data-bb="3501">12</text><rect class="legendtoggle" x="0" y="-9.5" height="19" width="82" style="cursor: pointer; fill: #000000; fill-opacity: 0;"></rect></g><g class="traces" transform="translate(0,261.5)" style="opacity: 1;"><g class="legendfill"></g><g class="legendlines"><path class="js-line" d="M5,0h30" style="fill: none; stroke: #f46d43; stroke-opacity: 1; stroke-width: 2px;"></path></g><g class="legendsymbols" style="opacity: 1;"><g class="legendpoints"></g></g><text class="legendtext" x="40" y="4.680000000000001" style="text-anchor: start; font-family: 'Open sans', verdana, arial, sans-serif; font-size: 12px; fill: #444444; fill-opacity: 1; visibility: visible;" data-bb="3502">13</text><rect class="legendtoggle" x="0" y="-9.5" height="19" width="82" style="cursor: pointer; fill: #000000; fill-opacity: 0;"></rect></g><g class="traces" transform="translate(0,280.5)" style="opacity: 1;"><g class="legendfill"></g><g class="legendlines"><path class="js-line" d="M5,0h30" style="fill: none; stroke: #fdae61; stroke-opacity: 1; stroke-width: 2px;"></path></g><g class="legendsymbols" style="opacity: 1;"><g class="legendpoints"></g></g><text class="legendtext" x="40" y="4.680000000000001" style="text-anchor: start; font-family: 'Open sans', verdana, arial, sans-serif; font-size: 12px; fill: #444444; fill-opacity: 1; visibility: visible;" data-bb="3503">14</text><rect class="legendtoggle" x="0" y="-9.5" height="19" width="82" style="cursor: pointer; fill: #000000; fill-opacity: 0;"></rect></g><g class="traces" transform="translate(0,299.5)" style="opacity: 1;"><g class="legendfill"></g><g class="legendlines"><path class="js-line" d="M5,0h30" style="fill: none; stroke: #fee08b; stroke-opacity: 1; stroke-width: 2px;"></path></g><g class="legendsymbols" style="opacity: 1;"><g class="legendpoints"></g></g><text class="legendtext" x="40" y="4.680000000000001" style="text-anchor: start; font-family: 'Open sans', verdana, arial, sans-serif; font-size: 12px; fill: #444444; fill-opacity: 1; visibility: visible;" data-bb="3504">15</text><rect class="legendtoggle" x="0" y="-9.5" height="19" width="82" style="cursor: pointer; fill: #000000; fill-opacity: 0;"></rect></g><g class="traces" transform="translate(0,318.5)" style="opacity: 1;"><g class="legendfill"></g><g class="legendlines"><path class="js-line" d="M5,0h30" style="fill: none; stroke: #e6f598; stroke-opacity: 1; stroke-width: 2px;"></path></g><g class="legendsymbols" style="opacity: 1;"><g class="legendpoints"></g></g><text class="legendtext" x="40" y="4.680000000000001" style="text-anchor: start; font-family: 'Open sans', verdana, arial, sans-serif; font-size: 12px; fill: #444444; fill-opacity: 1; visibility: visible;" data-bb="3505">16</text><rect class="legendtoggle" x="0" y="-9.5" height="19" width="82" style="cursor: pointer; fill: #000000; fill-opacity: 0;"></rect></g><g class="traces" transform="translate(0,337.5)" style="opacity: 1;"><g class="legendfill"></g><g class="legendlines"><path class="js-line" d="M5,0h30" style="fill: none; stroke: #abdda4; stroke-opacity: 1; stroke-width: 2px;"></path></g><g class="legendsymbols" style="opacity: 1;"><g class="legendpoints"></g></g><text class="legendtext" x="40" y="4.680000000000001" style="text-anchor: start; font-family: 'Open sans', verdana, arial, sans-serif; font-size: 12px; fill: #444444; fill-opacity: 1; visibility: visible;" data-bb="3506">17</text><rect class="legendtoggle" x="0" y="-9.5" height="19" width="82" style="cursor: pointer; fill: #000000; fill-opacity: 0;"></rect></g><g class="traces" transform="translate(0,356.5)" style="opacity: 1;"><g class="legendfill"></g><g class="legendlines"><path class="js-line" d="M5,0h30" style="fill: none; stroke: #66c2a5; stroke-opacity: 1; stroke-width: 2px;"></path></g><g class="legendsymbols" style="opacity: 1;"><g class="legendpoints"></g></g><text class="legendtext" x="40" y="4.680000000000001" style="text-anchor: start; font-family: 'Open sans', verdana, arial, sans-serif; font-size: 12px; fill: #444444; fill-opacity: 1; visibility: visible;" data-bb="3507">18</text><rect class="legendtoggle" x="0" y="-9.5" height="19" width="82" style="cursor: pointer; fill: #000000; fill-opacity: 0;"></rect></g><g class="traces" transform="translate(0,375.5)" style="opacity: 1;"><g class="legendfill"></g><g class="legendlines"><path class="js-line" d="M5,0h30" style="fill: none; stroke: #3288bd; stroke-opacity: 1; stroke-width: 2px;"></path></g><g class="legendsymbols" style="opacity: 1;"><g class="legendpoints"></g></g><text class="legendtext" x="40" y="4.680000000000001" style="text-anchor: start; font-family: 'Open sans', verdana, arial, sans-serif; font-size: 12px; fill: #444444; fill-opacity: 1; visibility: visible;" data-bb="3508">19</text><rect class="legendtoggle" x="0" y="-9.5" height="19" width="82" style="cursor: pointer; fill: #000000; fill-opacity: 0;"></rect></g><g class="traces" transform="translate(0,394.5)" style="opacity: 1;"><g class="legendfill"></g><g class="legendlines"><path class="js-line" d="M5,0h30" style="fill: none; stroke: #5e4fa2; stroke-opacity: 1; stroke-width: 2px;"></path></g><g class="legendsymbols" style="opacity: 1;"><g class="legendpoints"></g></g><text class="legendtext" x="40" y="4.680000000000001" style="text-anchor: start; font-family: 'Open sans', verdana, arial, sans-serif; font-size: 12px; fill: #444444; fill-opacity: 1; visibility: visible;" data-bb="3509">20</text><rect class="legendtoggle" x="0" y="-9.5" height="19" width="82" style="cursor: pointer; fill: #000000; fill-opacity: 0;"></rect></g></svg></g><g class="hoverlayer" style="pointer-events: none;"></g><text class="js-plot-link-container" y="291" text-anchor="end" x="393" style="font-family: 'Open Sans', Arial, sans-serif; font-size: 12px; fill: #444444;"><tspan class="js-link-to-tool"></tspan><tspan class="js-link-spacer"></tspan><tspan class="js-sourcelinks"></tspan></text></svg>