<svg xmlns="http://www.w3.org/2000/svg" xmlns:xlink="http://www.w3.org/1999/xlink" xml:space="preserve" width="400" height="300"><rect x="0" y="0" width="400" height="300" style="fill: #ffffff; fill-opacity: 1;"></rect><defs id="defs-b696d0"><g class="clips"><clipPath class="axesclip" id="clipb696d0x"><rect x="55" y="0" width="241" height="300"></rect></clipPath><clipPath class="axesclip" id="clipb696d0y"><rect x="0" y="30" width="400" height="225"></rect></clipPath><clipPath class="axesclip" id="clipb696d0xy"><rect x="55" y="30" width="241" height="225"></rect></clipPath></g></defs><g class="subplot xy"><rect x="51" y="26" width="249" height="233" style="stroke-width: 0px; fill: #ffffff; fill-opacity: 1;"></rect><g transform="translate(55,30)"><path class="xgrid crisp" d="M0,0v225" transform="translate(94.51,0)" style="stroke: #eeeeee; stroke-opacity: 1; stroke-width: 1px;"></path><path class="xgrid crisp" d="M0,0v225" transform="translate(189.02,0)" style="stroke: #eeeeee; stroke-opacity: 1; stroke-width: 1px;"></path><path class="ygrid crisp" d="M0,0h241" transform="translate(0,202.5)" style="stroke: #eeeeee; stroke-opacity: 1; stroke-width: 1px;"></path><path class="ygrid crisp" d="M0,0h241" transform="translate(0,157.5)" style="stroke: #eeeeee; stroke-opacity: 1; stroke-width: 1px;"></path><path class="ygrid crisp" d="M0,0h241" transform="translate(0,112.5)" style="stroke: #eeeeee; stroke-opacity: 1; stroke-width: 1px;"></path><path class="ygrid crisp" d="M0,0h241" transform="translate(0,67.5)" style="stroke: #eeeeee; stroke-opacity: 1; stroke-width: 1px;"></path></g><g></g><g transform="translate(55,30)"><path class="xzl zl crisp" d="M0,0v225" transform="translate(0,0)" style="stroke: #444444; stroke-opacity: 1; stroke-width: 1px;"></path><path class="yzl zl crisp" d="M0,0h241" transform="translate(0,22.5)" style="stroke: #444444; stroke-opacity: 1; stroke-width: 1px;"></path></g><g></g><svg preserveAspectRatio="none" x="55" y="30" width="241" height="225" viewBox="0 0 241 225" style="fill: none;"><g class="maplayer"></g><g class="barlayer"></g><g class="errorlayer"><g class="errorbars"></g><g class="errorbars"></g><g class="errorbars"></g><g class="errorbars"></g><g class="errorbars"></g><g class="errorbars"></g><g class="errorbars"></g><g class="errorbars"></g><g class="errorbars"></g><g class="errorbars"></g><g class="errorbars"></g></g><g class="boxlayer"></g><g class="scatterlayer"><g class="trace scatter" style="stroke-miterlimit: 2; opacity: 1;"><path class="js-line" d="M0,22.5L4.73,32.18L9.45,53.71L14.18,77.11L18.9,96.2L23.63,124.32L28.35,148.66L33.08,171.82L37.8,190.58L42.53,190.58L47.25,210.69L51.98,210.69L56.71,205.18L61.43,205.18L66.16,194.49L70.88,180.96L75.61,165.16L80.33,147.08L85.06,127.09L89.78,102.51L94.51,74.99L99.24,46.01L103.96,22.32L108.69,19.87" style="fill: none; stroke: #969696; stroke-opacity: 1; stroke-width: 2px;"></path></g><g class="trace scatter" style="stroke-miterlimit: 2; opacity: 1;"><path class="js-line" d="M0,22.5L4.73,22.5L9.45,26.37L14.18,26.37L18.9,31.46L23.63,36.87L28.35,41.32L33.08,45.57L37.8,47.41L42.53,44.61L47.25,39.68L51.98,36.47L56.71,34.69L61.43,37.01L66.16,50.33L70.88,63.18L75.61,72.9L80.33,80.61L85.06,88.73L89.78,88.73L94.51,106.18L99.24,106.18L103.96,114.26L108.69,122.1L113.41,134.46L118.14,134.46L122.86,139.99L127.59,145.82L132.31,151.46L137.04,154.48L141.76,157.59L146.49,159.89L151.22,161.34L155.94,161.11L160.67,158.44L165.39,154.24L170.12,149.22L174.84,143.24L179.57,136.04L184.29,136.04L189.02,119.75L193.75,119.75L198.47,110.18L203.2,100.26L207.92,89.75L212.65,79.43L217.37,69.24L222.1,58.55L226.82,49.36L231.55,41.57L236.27,35.55L241,32.11" style="fill: none; stroke: #9e0142; stroke-opacity: 1; stroke-width: 2px;"></path></g><g class="trace scatter" style="stroke-miterlimit: 2; opacity: 1;"><path class="js-line" d="M0,22.5L4.73,28.59L9.45,32.44L14.18,38.91L18.9,45.31L23.63,51.26L28.35,51.26L33.08,73.15L37.8,73.15L42.53,78.77L47.25,89.06L51.98,109.08L56.71,109.08L61.43,116.96L66.16,125.49L70.88,133.01L75.61,140.01L80.33,146.84L85.06,152.32L89.78,156.96L94.51,160.92L99.24,163.94L103.96,165.17L108.69,164.28L113.41,161.11L118.14,156.93L122.86,156.93L127.59,146.17L132.31,146.17L137.04,139.78L141.76,133.13L146.49,126.15L151.22,118.9L155.94,110.4L160.67,101.86L165.39,92.55L170.12,82.84L174.84,73.16L179.57,62.99L184.29,53.72L189.02,45.82L193.75,38.37L198.47,33.65L203.2,31.41" style="fill: none; stroke: #d53e4f; stroke-opacity: 1; stroke-width: 2px;"></path></g><g class="trace scatter" style="stroke-miterlimit: 2; opacity: 1;"><path class="js-line" d="M0,22.5L4.73,22.5L9.45,25.27L14.18,25.27L18.9,30.15L23.63,39.4L28.35,57.5L33.08,57.5L37.8,67.56L42.53,78.11L47.25,87.9L51.98,96.16L56.71,105.1L61.43,113.45L66.16,121.74L70.88,129.56L75.61,136.49L80.33,142.52L85.06,148.15L89.78,152.71L94.51,155.23L99.24,155.23L103.96,152.92L108.69,152.92L113.41,149.46L118.14,145.19L122.86,140.35L127.59,134.28L132.31,127.71L137.04,121.38L141.76,114.44L146.49,107.33L151.22,99.8L155.94,92.3L160.67,84.58L165.39,76.9L170.12,67.69L174.84,57.95L179.57,48.74L184.29,48.74L189.02,28.17L193.75,28.17L198.47,21.96L203.2,18.63" style="fill: none; stroke: #f46d43; stroke-opacity: 1; stroke-width: 2px;"></path></g><g class="trace scatter" style="stroke-miterlimit: 2; opacity: 1;"><path class="js-line" d="M0,22.5L4.73,26.35L9.45,26.35L14.18,33.4L18.9,42.76L23.63,52.92L28.35,64.78L33.08,76.05L37.8,85.45L42.53,93.56L47.25,103.3L51.98,113.09L56.71,121.41L61.43,128.99L66.16,135.56L70.88,141.71L75.61,141.71L80.33,149.5L85.06,149.5L89.78,151.88L94.51,153.5L99.24,153.53L103.96,151.5L108.69,148.2L113.41,144.2L118.14,139.16L122.86,133.62L127.59,127.43L132.31,120.54L137.04,114.09L141.76,107.97L146.49,101.06L151.22,94.04L155.94,86.08L160.67,86.08L165.39,67.82L170.12,67.82L174.84,57.37L179.57,46.25L184.29,35.42L189.02,27.46L193.75,21.73L198.47,19.6" style="fill: none; stroke: #fdae61; stroke-opacity: 1; stroke-width: 2px;"></path></g><g class="trace scatter" style="stroke-miterlimit: 2; opacity: 1;"><path class="js-line" d="M0,22.5L4.73,24.74L9.45,30.53L14.18,38.59L18.9,46.95L23.63,56.37L28.35,67.61L33.08,78.79L37.8,89.13L42.53,98.3L47.25,106.39L51.98,115.21L56.71,115.21L61.43,130.76L66.16,130.76L70.88,137.71L75.61,143.3L80.33,148.38L85.06,152.73L89.78,155.56L94.51,156.8L99.24,155.61L103.96,152.59L108.69,148.49L113.41,143.62L118.14,138.46L122.86,133L127.59,127.08L132.31,120.58L137.04,113.73L141.76,113.73L146.49,99.51L151.22,99.51L155.94,91.67L160.67,83.11L165.39,74.03L170.12,63.82L174.84,53.88L179.57,41.88L184.29,31.13L189.02,23.5L193.75,19.61L198.47,18.37" style="fill: none; stroke: #fee08b; stroke-opacity: 1; stroke-width: 2px;"></path></g><g class="trace scatter" style="stroke-miterlimit: 2; opacity: 1;"><path class="js-line" d="M0,22.5L4.73,24.93L9.45,34.09L14.18,41.7L18.9,51.92L23.63,60.16L28.35,69.88L33.08,79.88L37.8,79.88L42.53,99.6L47.25,99.6L51.98,108.68L56.71,117.03L61.43,124.43L66.16,130.6L70.88,136.81L75.61,142.14L80.33,146.63L85.06,150.1L89.78,152.66L94.51,154.52L99.24,154.98L103.96,153.6L108.69,150.51L113.41,146.49L118.14,141.73L122.86,141.73L127.59,130.21L132.31,130.21L137.04,124.28L141.76,118.38L146.49,111.6L151.22,104.36L155.94,96.92L160.67,88.08L165.39,79.38L170.12,69.01L174.84,58.99L179.57,49.42L184.29,39.21L189.02,39.68L193.75,33.72" style="fill: none; stroke: #e6f598; stroke-opacity: 1; stroke-width: 2px;"></path></g><g class="trace scatter" style="stroke-miterlimit: 2; opacity: 1;"><path class="js-line" d="M0,22.5L4.73,22.89L9.45,22.74L14.18,24.55L18.9,32.98L23.63,32.98L28.35,51.52L33.08,51.52L37.8,60.56L42.53,72.51L47.25,80.8L51.98,89.58L56.71,98.3L61.43,105.73L66.16,113.81L70.88,121.07L75.61,127.16L80.33,132.96L85.06,137.69L89.78,141.78L94.51,144.6L99.24,146.08L103.96,145.38L108.69,145.38L113.41,138.6L118.14,138.6L122.86,133.79L127.59,128.4L132.31,122.66L137.04,116.92L141.76,110.63L146.49,103.73L151.22,96.31L155.94,88.1L160.67,79.4L165.39,71.35L170.12,62.13L174.84,53.35L179.57,44.63L184.29,34.27L189.02,22.89L193.75,14.02L198.47,8.94" style="fill: none; stroke: #abdda4; stroke-opacity: 1; stroke-width: 2px;"></path></g><g class="trace scatter" style="stroke-miterlimit: 2; opacity: 1;"><path class="js-line" d="M0,22.5L4.73,22.5L9.45,25.19L14.18,25.19L18.9,31.83L23.63,41.27L28.35,54.29L33.08,68L37.8,76.02L42.53,89.04L47.25,98.49L51.98,108.06L56.71,117.62L61.43,124.68L66.16,131.73L70.88,138.73L75.61,144.13L80.33,148.87L85.06,153.11L89.78,153.11L94.51,157.77L99.24,157.77L103.96,156.79L108.69,154.07L113.41,145.87L118.14,145.87L122.86,140.68L127.59,135.19L132.31,129.12L137.04,122.98L141.76,116.36L146.49,110.3L151.22,103.86L155.94,96.54L160.67,89.04L165.39,80.75L170.12,73.01L174.84,63.82L179.57,56.15L184.29,56.15L189.02,40.75L193.75,40.75L198.47,35.81L203.2,30.17L207.92,27L212.65,26.12" style="fill: none; stroke: #66c2a5; stroke-opacity: 1; stroke-width: 2px;"></path></g><g class="trace scatter" style="stroke-miterlimit: 2; opacity: 1;"><path class="js-line" d="M0,22.5L4.73,24.05L9.45,28.75L14.18,36.84L18.9,47.15L23.63,56.48L28.35,68.75L33.08,81.14L37.8,90.31L42.53,99.25L47.25,107.93L51.98,116.54L56.71,116.54L61.43,133.54L66.16,133.54L70.88,140.23L75.61,145.33L80.33,151.16L85.06,151.16L89.78,152.93L94.51,152.58L99.24,149.99L103.96,146.16L108.69,141.3L113.41,136.43L118.14,130.54L122.86,124.23L127.59,117.6L132.31,111.28L137.04,104.55L141.76,97.92L146.49,90.81L151.22,90.81L155.94,75.05L160.67,75.05L165.39,66.33L170.12,57.24L174.84,47.73L179.57,38.28L184.29,26.83L189.02,19.34L193.75,17.9" style="fill: none; stroke: #3288bd; stroke-opacity: 1; stroke-width: 2px;"></path></g><g class="trace scatter" style="stroke-miterlimit: 2; opacity: 1;"><path class="js-line" d="M0,22.5L4.73,25.35L9.45,29.61L14.18,34.86L18.9,46.02L23.63,58.75L28.35,71.67L33.08,81.92L37.8,91.78L42.53,91.78L47.25,114.65L51.98,114.65L56.71,123.41L61.43,131.82L66.16,145.56L70.88,145.56L75.61,151.9L80.33,155.29L85.06,157.54L89.78,158.62L94.51,158.4L99.24,156.32L103.96,152.72L108.69,148.02L113.41,142.61L118.14,136.82L122.86,130.89L127.59,125.04L132.31,119.66L137.04,119.66L141.76,107.91L146.49,107.91L151.22,101.96L155.94,95.53L160.67,89.1L165.39,81.95L170.12,75.38L174.84,67.92L179.57,61.02L184.29,54.39L189.02,48.12L193.75,42.54L198.47,37.79L203.2,33.4L207.92,29.16L212.65,26.24L217.37,24.4L222.1,24.4L226.82,23.75" style="fill: none; stroke: #5e4fa2; stroke-opacity: 1; stroke-width: 2px;"></path></g></g></svg><g></g><path class="crisp" transform="translate(55,30)" d="M-5,229.5h251" style="fill: none; stroke-width: 1px; stroke: #000000; stroke-opacity: 0;"></path><path class="crisp" transform="translate(55,30)" d="M-4.5,-5v234" stroke-width="1px" style="fill: none; stroke: #000000; stroke-opacity: 0;"></path><g></g><g transform="translate(55,30)"><g class="xtick"><text text-anchor="middle" x="0" y="243" transform="translate(0,0)" style="font-family: 'Open sans', verdana, arial, sans-serif; font-size: 12px; fill: #444444; fill-opacity: 1; visibility: visible;" data-bb="2931">0</text></g><g class="xtick"><text text-anchor="middle" x="0" y="243" transform="translate(94.51,0)" style="font-family: 'Open sans', verdana, arial, sans-serif; font-size: 12px; fill: #444444; fill-opacity: 1; visibility: visible;" data-bb="2932">1</text></g><g class="xtick"><text text-anchor="middle" x="0" y="243" transform="translate(189.02,0)" style="font-family: 'Open sans', verdana, arial, sans-serif; font-size: 12px; fill: #444444; fill-opacity: 1; visibility: visible;" data-bb="2933">2</text></g></g><g transform="translate(55,30)"><g class="ytick"><text text-anchor="end" x="-6" y="6" transform="translate(0,202.5)" style="font-family: 'Open sans', verdana, arial, sans-serif; font-size: 12px; fill: #444444; fill-opacity: 1; visibility: visible;">−80</text></g><g class="ytick"><text text-anchor="end" x="-6" y="6" transform="translate(0,157.5)" style="font-family: 'Open sans', verdana, arial, sans-serif; font-size: 12px; fill: #444444; fill-opacity: 1; visibility: visible;">−60</text></g><g class="ytick"><text text-anchor="end" x="-6" y="6" transform="translate(0,112.5)" style="font-family: 'Open sans', verdana, arial, sans-serif; font-size: 12px; fill: #444444; fill-opacity: 1; visibility: visible;">−40</text></g><g class="ytick"><text text-anchor="end" x="-6" y="6" transform="translate(0,67.5)" style="font-family: 'Open sans', verdana, arial, sans-serif; font-size: 12px; fill: #444444; fill-opacity: 1; visibility: visible;">−20</text></g><g class="ytick"><text text-anchor="end" x="-6" y="6" transform="translate(0,22.5)" style="font-family: 'Open sans', verdana, arial, sans-serif; font-size: 12px; fill: #444444; fill-opacity: 1; visibility: visible;">0</text></g></g><g></g></g><g transform="translate(55,30)"></g><g class="shapelayer" style="pointer-events: none;"></g><g class="infolayer"><g class="g-gtitle"><text class="gtitle" x="200" y="15" text-anchor="middle" style="font-family: 'Open sans', verdana, arial, sans-serif; font-size: 17px; fill: #444444; opacity: 1; visibility: visible;">Last Set of Reps</text></g><g class="g-xtitle" data-bb="2934" transform="translate(0,-18)"><text class="xtitle" x="175.5" y="313" text-anchor="middle" style="font-family: 'Open sans', verdana, arial, sans-serif; font-size: 16px; fill: #6b6b6b; opacity: 1; visibility: visible;">Duration (seconds)</text></g><g class="g-ytitle" data-bb="2935" transform="translate(4,0)"><text class="ytitle" transform="rotate(-90,13,142.5) translate(0, 0)" x="13" y="142.5" text-anchor="middle" style="font-family: 'Open sans', verdana, arial, sans-serif; font-size: 16px; fill: #6b6b6b; opacity: 1; visibility: visible;">Pitch (degrees)</text></g><svg class="legend" x="301" y="30" width="87" height="219"><rect class="bg" x="0" y="0" width="87" height="219" style="stroke: #444444; stroke-opacity: 1; fill: #ffffff; fill-opacity: 1; stroke-width: 0px;"></rect><g class="traces" transform="translate(0,14.5)" style="opacity: 1;"><g class="legendfill"></g><g class="legendlines"><path class="js-line" d="M5,0h30" style="fill: none; stroke: #969696; stroke-opacity: 1; stroke-width: 2px;"></path></g><g class="legendsymbols" style="opacity: 1;"><g class="legendpoints"></g></g><text class="legendtext" x="40" y="4.680000000000001" style="text-anchor: start; font-family: 'Open sans', verdana, arial, sans-serif; font-size: 12px; fill: #444444; fill-opacity: 1; visibility: visible;" data-bb="2920">optimal</text><rect class="legendtoggle" x="0" y="-9.5" height="19" width="82" style="cursor: pointer; fill: #000000; fill-opacity: 0;"></rect></g><g class="traces" transform="translate(0,33.5)" style="opacity: 1;"><g class="legendfill"></g><g class="legendlines"><path class="js-line" d="M5,0h30" style="fill: none; stroke: #9e0142; stroke-opacity: 1; stroke-width: 2px;"></path></g><g class="legendsymbols" style="opacity: 1;"><g class="legendpoints"></g></g><text class="legendtext" x="40" y="4.680000000000001" style="text-anchor: start; font-family: 'Open sans', verdana, arial, sans-serif; font-size: 12px; fill: #444444; fill-opacity: 1; visibility: visible;" data-bb="2921">1</text><rect class="legendtoggle" x="0" y="-9.5" height="19" width="82" style="cursor: pointer; fill: #000000; fill-opacity: 0;"></rect></g><g class="traces" transform="translate(0,52.5)" style="opacity: 1;"><g class="legendfill"></g><g class="legendlines"><path class="js-line" d="M5,0h30" style="fill: none; stroke: #d53e4f; stroke-opacity: 1; stroke-width: 2px;"></path></g><g class="legendsymbols" style="opacity: 1;"><g class="legendpoints"></g></g><text class="legendtext" x="40" y="4.680000000000001" style="text-anchor: start; font-family: 'Open sans', verdana, arial, sans-serif; font-size: 12px; fill: #444444; fill-opacity: 1; visibility: visible;" data-bb="2922">2</text><rect class="legendtoggle" x="0" y="-9.5" height="19" width="82" style="cursor: pointer; fill: #000000; fill-opacity: 0;"></rect></g><g class="traces" transform="translate(0,71.5)" style="opacity: 1;"><g class="legendfill"></g><g class="legendlines"><path class="js-line" d="M5,0h30" style="fill: none; stroke: #f46d43; stroke-opacity: 1; stroke-width: 2px;"></path></g><g class="legendsymbols" style="opacity: 1;"><g class="legendpoints"></g></g><text class="legendtext" x="40" y="4.680000000000001" style="text-anchor: start; font-family: 'Open sans', verdana, arial, sans-serif; font-size: 12px; fill: #444444; fill-opacity: 1; visibility: visible;" data-bb="2923">3</text><rect class="legendtoggle" x="0" y="-9.5" height="19" width="82" style="cursor: pointer; fill: #000000; fill-opacity: 0;"></rect></g><g class="traces" transform="translate(0,90.5)" style="opacity: 1;"><g class="legendfill"></g><g class="legendlines"><path class="js-line" d="M5,0h30" style="fill: none; stroke: #fdae61; stroke-opacity: 1; stroke-width: 2px;"></path></g><g class="legendsymbols" style="opacity: 1;"><g class="legendpoints"></g></g><text class="legendtext" x="40" y="4.680000000000001" style="text-anchor: start; font-family: 'Open sans', verdana, arial, sans-serif; font-size: 12px; fill: #444444; fill-opacity: 1; visibility: visible;" data-bb="2924">4</text><rect class="legendtoggle" x="0" y="-9.5" height="19" width="82" style="cursor: pointer; fill: #000000; fill-opacity: 0;"></rect></g><g class="traces" transform="translate(0,109.5)" style="opacity: 1;"><g class="legendfill"></g><g class="legendlines"><path class="js-line" d="M5,0h30" style="fill: none; stroke: #fee08b; stroke-opacity: 1; stroke-width: 2px;"></path></g><g class="legendsymbols" style="opacity: 1;"><g class="legendpoints"></g></g><text class="legendtext" x="40" y="4.680000000000001" style="text-anchor: start; font-family: 'Open sans', verdana, arial, sans-serif; font-size: 12px; fill: #444444; fill-opacity: 1; visibility: visible;" data-bb="2925">5</text><rect class="legendtoggle" x="0" y="-9.5" height="19" width="82" style="cursor: pointer; fill: #000000; fill-opacity: 0;"></rect></g><g class="traces" transform="translate(0,128.5)" style="opacity: 1;"><g class="legendfill"></g><g class="legendlines"><path class="js-line" d="M5,0h30" style="fill: none; stroke: #e6f598; stroke-opacity: 1; stroke-width: 2px;"></path></g><g class="legendsymbols" style="opacity: 1;"><g class="legendpoints"></g></g><text class="legendtext" x="40" y="4.680000000000001" style="text-anchor: start; font-family: 'Open sans', verdana, arial, sans-serif; font-size: 12px; fill: #444444; fill-opacity: 1; visibility: visible;" data-bb="2926">6</text><rect class="legendtoggle" x="0" y="-9.5" height="19" width="82" style="cursor: pointer; fill: #000000; fill-opacity: 0;"></rect></g><g class="traces" transform="translate(0,147.5)" style="opacity: 1;"><g class="legendfill"></g><g class="legendlines"><path class="js-line" d="M5,0h30" style="fill: none; stroke: #abdda4; stroke-opacity: 1; stroke-width: 2px;"></path></g><g class="legendsymbols" style="opacity: 1;"><g class="legendpoints"></g></g><text class="legendtext" x="40" y="4.680000000000001" style="text-anchor: start; font-family: 'Open sans', verdana, arial, sans-serif; font-size: 12px; fill: #444444; fill-opacity: 1; visibility: visible;" data-bb="2927">7</text><rect class="legendtoggle" x="0" y="-9.5" height="19" width="82" style="cursor: pointer; fill: #000000; fill-opacity: 0;"></rect></g><g class="traces" transform="translate(0,166.5)" style="opacity: 1;"><g class="legendfill"></g><g class="legendlines"><path class="js-line" d="M5,0h30" style="fill: none; stroke: #66c2a5; stroke-opacity: 1; stroke-width: 2px;"></path></g><g class="legendsymbols" style="opacity: 1;"><g class="legendpoints"></g></g><text class="legendtext" x="40" y="4.680000000000001" style="text-anchor: start; font-family: 'Open sans', verdana, arial, sans-serif; font-size: 12px; fill: #444444; fill-opacity: 1; visibility: visible;" data-bb="2928">8</text><rect class="legendtoggle" x="0" y="-9.5" height="19" width="82" style="cursor: pointer; fill: #000000; fill-opacity: 0;"></rect></g><g class="traces" transform="translate(0,185.5)" style="opacity: 1;"><g class="legendfill"></g><g class="legendlines"><path class="js-line" d="M5,0h30" style="fill: none; stroke: #3288bd; stroke-opacity: 1; stroke-width: 2px;"></path></g><g class="legendsymbols" style="opacity: 1;"><g class="legendpoints"></g></g><text class="legendtext" x="40" y="4.680000000000001" style="text-anchor: start; font-family: 'Open sans', verdana, arial, sans-serif; font-size: 12px; fill: #444444; fill-opacity: 1; visibility: visible;" data-bb="2929">9</text><rect class="legendtoggle" x="0" y="-9.5" height="19" width="82" style="cursor: pointer; fill: #000000; fill-opacity: 0;"></rect></g><g class="traces" transform="translate(0,204.5)" style="opacity: 1;"><g class="legendfill"></g><g class="legendlines"><path class="js-line" d="M5,0h30" style="fill: none; stroke: #5e4fa2; stroke-opacity: 1; stroke-width: 2px;"></path></g><g class="legendsymbols" style="opacity: 1;"><g class="legendpoints"></g></g><text class="legendtext" x="40" y="4.680000000000001" style="text-anchor: start; font-family: 'Open sans', verdana, arial, sans-serif; font-size: 12px; fill: #444444; fill-opacity: 1; visibility: visible;" data-bb="2930">10</text><rect class="legendtoggle" x="0" y="-9.5" height="19" width="82" style="cursor: pointer; fill: #000000; fill-opacity: 0;"></rect></g></svg></g><g class="hoverlayer" style="pointer-events: none;"></g><text class="js-plot-link-container" y="291" text-anchor="end" x="393" style="font-family: 'Open Sans', Arial, sans-serif; font-size: 12px; fill: #444444;"><tspan class="js-link-to-tool"></tspan><tspan class="js-link-spacer"></tspan><tspan class="js-sourcelinks"></tspan></text></svg>