<svg xmlns="http://www.w3.org/2000/svg" xmlns:xlink="http://www.w3.org/1999/xlink" xml:space="preserve" width="400" height="300"><rect x="0" y="0" width="400" height="300" style="fill: #ffffff; fill-opacity: 1;"></rect><defs id="defs-a6a46d"><g class="clips"><clipPath class="axesclip" id="clipa6a46dx"><rect x="55" y="0" width="241" height="300"></rect></clipPath><clipPath class="axesclip" id="clipa6a46dy"><rect x="0" y="30" width="400" height="225"></rect></clipPath><clipPath class="axesclip" id="clipa6a46dxy"><rect x="55" y="30" width="241" height="225"></rect></clipPath></g></defs><g class="subplot xy"><rect x="51" y="26" width="249" height="233" style="stroke-width: 0px; fill: #ffffff; fill-opacity: 1;"></rect><g transform="translate(55,30)"><path class="xgrid crisp" d="M0,0v225" transform="translate(80.33,0)" style="stroke: #eeeeee; stroke-opacity: 1; stroke-width: 1px;"></path><path class="xgrid crisp" d="M0,0v225" transform="translate(160.67,0)" style="stroke: #eeeeee; stroke-opacity: 1; stroke-width: 1px;"></path><path class="ygrid crisp" d="M0,0h241" transform="translate(0,202.5)" style="stroke: #eeeeee; stroke-opacity: 1; stroke-width: 1px;"></path><path class="ygrid crisp" d="M0,0h241" transform="translate(0,157.5)" style="stroke: #eeeeee; stroke-opacity: 1; stroke-width: 1px;"></path><path class="ygrid crisp" d="M0,0h241" transform="translate(0,112.5)" style="stroke: #eeeeee; stroke-opacity: 1; stroke-width: 1px;"></path><path class="ygrid crisp" d="M0,0h241" transform="translate(0,67.5)" style="stroke: #eeeeee; stroke-opacity: 1; stroke-width: 1px;"></path></g><g></g><g transform="translate(55,30)"><path class="xzl zl crisp" d="M0,0v225" transform="translate(0,0)" style="stroke: #444444; stroke-opacity: 1; stroke-width: 1px;"></path><path class="yzl zl crisp" d="M0,0h241" transform="translate(0,22.5)" style="stroke: #444444; stroke-opacity: 1; stroke-width: 1px;"></path></g><g></g><svg preserveAspectRatio="none" x="55" y="30" width="241" height="225" viewBox="0 0 241 225" style="fill: none;"><g class="maplayer"></g><g class="barlayer"></g><g class="errorlayer"><g class="errorbars"></g><g class="errorbars"></g><g class="errorbars"></g><g class="errorbars"></g><g class="errorbars"></g><g class="errorbars"></g><g class="errorbars"></g><g class="errorbars"></g><g class="errorbars"></g><g class="errorbars"></g><g class="errorbars"></g></g><g class="boxlayer"></g><g class="scatterlayer"><g class="trace scatter" style="stroke-miterlimit: 2; opacity: 1;"><path class="js-line" d="M0,22.5L4.02,32.18L8.03,53.71L12.05,77.11L16.07,96.2L20.08,124.32L24.1,148.66L28.12,171.82L32.13,190.58L36.15,190.58L40.17,210.69L44.18,210.69L48.2,205.18L52.22,205.18L56.23,194.49L60.25,180.96L64.27,165.16L68.28,147.08L72.3,127.09L76.32,102.51L80.33,74.99L84.35,46.01L88.37,22.32L92.38,19.87" style="fill: none; stroke: #969696; stroke-opacity: 1; stroke-width: 2px;"></path></g><g class="trace scatter" style="stroke-miterlimit: 2; opacity: 1;"><path class="js-line" d="M0,22.5L4.02,22.98L8.03,23.63L12.05,23.48L16.07,23.5L20.08,25.28L24.1,27.5L28.12,29.68L32.13,32.17L36.15,35.19L40.17,38.49L44.18,38.49L48.2,44.87L52.22,44.87L56.23,59.91L60.25,74.7L64.27,108.96L68.28,108.96L72.3,125.58L76.32,141.94L80.33,156.42L84.35,168.88L88.37,179.56L92.38,186.76L96.4,189.57L100.42,188.67L104.43,184.37L108.45,178.45L112.47,171.75L116.48,163.81L120.5,155.39L124.52,155.39L128.53,137.64L132.55,137.64L136.57,129.4L140.58,120.7L144.6,112.16L148.62,103.55L152.63,93.74L156.65,83.83L160.67,72.95L164.68,61.44L168.7,50.26L172.72,39.39L176.73,29.8L180.75,24.52L184.77,22.68" style="fill: none; stroke: #9e0142; stroke-opacity: 1; stroke-width: 2px;"></path></g><g class="trace scatter" style="stroke-miterlimit: 2; opacity: 1;"><path class="js-line" d="M0,22.5L4.02,23.23L8.03,24.25L12.05,24.25L16.07,32.35L20.08,32.35L24.1,44.5L28.12,57.38L32.13,87.17L36.15,87.17L40.17,102.82L44.18,118.46L48.2,132.4L52.22,144.83L56.23,156.48L60.25,167.23L64.27,176.5L68.28,183.85L72.3,188.51L76.32,189.3L80.33,186.63L84.35,181.97L88.37,176.38L92.38,176.38L96.4,164.09L100.42,164.09L104.43,157.23L108.45,149.48L112.47,141.94L116.48,134.13L120.5,126L124.52,118.29L128.53,109.35L132.55,100.27L136.57,90.5L140.58,80.27L144.6,68.71L148.62,56.39L152.63,44.94L156.65,35.52L160.67,30.38L164.68,30.38L168.7,24.23L172.72,24.23L176.73,20.42L180.75,18.27" style="fill: none; stroke: #d53e4f; stroke-opacity: 1; stroke-width: 2px;"></path></g><g class="trace scatter" style="stroke-miterlimit: 2; opacity: 1;"><path class="js-line" d="M0,22.5L4.02,23.02L8.03,23.02L12.05,24.4L16.07,26.55L20.08,31.43L24.1,39.51L28.12,51.17L32.13,62.38L36.15,75.19L40.17,91.52L44.18,105.61L48.2,119.82L52.22,134.03L56.23,147.71L60.25,160.09L64.27,160.09L68.28,180.81L72.3,180.81L76.32,187.74L80.33,190.74L84.35,190.16L88.37,186.45L92.38,181.5L96.4,175.64L100.42,168.24L104.43,161.07L108.45,153.4L112.47,146.41L116.48,139.55L120.5,132.78L124.52,126.27L128.53,119.83L132.55,113.23L136.57,113.23L140.58,99.45L144.6,99.45L148.62,91.85L152.63,84.11L156.65,65.71L160.67,65.71L164.68,55.95L168.7,46.73L172.72,38.53L176.73,32.44L180.75,27.82L184.77,22.68L188.78,20.78" style="fill: none; stroke: #f46d43; stroke-opacity: 1; stroke-width: 2px;"></path></g><g class="trace scatter" style="stroke-miterlimit: 2; opacity: 1;"><path class="js-line" d="M0,22.5L4.02,23.49L8.03,24.05L12.05,26.89L16.07,30.51L20.08,37.52L24.1,47.19L28.12,47.19L32.13,68L36.15,68L40.17,81.85L44.18,95.8L48.2,110.3L52.22,122.86L56.23,135.44L60.25,147.59L64.27,158.24L68.28,167.43L72.3,173.33L76.32,175.8L80.33,174.17L84.35,170.47L88.37,165.34L92.38,159.62L96.4,153.06L100.42,153.06L104.43,139.14L108.45,139.14L112.47,132.25L116.48,125.91L120.5,112.96L124.52,112.96L128.53,106.66L132.55,99.77L136.57,92.24L140.58,83.96L144.6,75L148.62,64.45L152.63,53.03L156.65,41.75L160.67,31.56L164.68,24.28L168.7,20.78L172.72,18.2L176.73,16.94" style="fill: none; stroke: #fdae61; stroke-opacity: 1; stroke-width: 2px;"></path></g><g class="trace scatter" style="stroke-miterlimit: 2; opacity: 1;"><path class="js-line" d="M0,22.5L4.02,22.5L8.03,22.8L12.05,22.8L16.07,23.82L20.08,25.31L24.1,27.98L28.12,33.44L32.13,41.44L36.15,51.03L40.17,62.02L44.18,73.43L48.2,85.66L52.22,98.44L56.23,109.63L60.25,120.83L64.27,131.92L68.28,141.84L72.3,150.75L76.32,150.75L80.33,164.89L84.35,164.89L88.37,168.66L92.38,169.31L96.4,163.97L100.42,163.97L104.43,158.79L108.45,153.16L112.47,146.34L116.48,139.54L120.5,132.66L124.52,125.84L128.53,119.34L132.55,113.02L136.57,107.05L140.58,100.85L144.6,94.32L148.62,87.28L152.63,80.04L156.65,80.04L160.67,63.61L164.68,63.61L168.7,55.55L172.72,48.47L176.73,41.82L180.75,36.69L184.77,33.79L188.78,31L192.8,30.5L196.82,29.32L200.83,29.5L204.85,29.29L208.87,28.62L212.88,27.51L216.9,26.9L220.92,23.45L224.93,19.58L228.95,19.58L232.97,17.21L236.98,17.21L241,16.34" style="fill: none; stroke: #fee08b; stroke-opacity: 1; stroke-width: 2px;"></path></g><g class="trace scatter" style="stroke-miterlimit: 2; opacity: 1;"><path class="js-line" d="M0,22.5L4.02,23.57L8.03,26.13L12.05,26.13L16.07,29.04L20.08,33.81L24.1,42.05L28.12,54.49L32.13,67.45L36.15,83.7L40.17,98.65L44.18,113.06L48.2,127.24L52.22,139.78L56.23,150.04L60.25,158.79L64.27,165.44L68.28,165.44L72.3,168.38L76.32,168.38L80.33,165.39L84.35,161.08L88.37,155.65L92.38,149.83L96.4,143.57L100.42,136.12L104.43,129.35L108.45,122.29L112.47,115.65L116.48,109.41L120.5,103.18L124.52,97.83L128.53,90.82L132.55,83.83L136.57,76.66L140.58,76.66L144.6,61.73L148.62,61.73L152.63,54.03L156.65,47.33L160.67,35.81L164.68,35.81L168.7,33.55L172.72,28.35L176.73,24.94L180.75,21.68L184.77,21.09" style="fill: none; stroke: #e6f598; stroke-opacity: 1; stroke-width: 2px;"></path></g><g class="trace scatter" style="stroke-miterlimit: 2; opacity: 1;"><path class="js-line" d="M0,22.5L4.02,23.09L8.03,24.05L12.05,25.21L16.07,26.87L20.08,29.54L24.1,38.26L28.12,48.19L32.13,56.91L36.15,56.91L40.17,84.21L44.18,84.21L48.2,97.74L52.22,109.72L56.23,121.55L60.25,133.43L64.27,143.65L68.28,153.1L72.3,159.51L76.32,163.7L80.33,164.29L84.35,162.46L88.37,158.23L92.38,153.32L96.4,148L100.42,141.57L104.43,135.8L108.45,135.8L112.47,123.72L116.48,117.64L120.5,117.64L124.52,112.28L128.53,102.52L132.55,102.52L136.57,97.47L140.58,92.59L144.6,87.02L148.62,80.24L152.63,72.62L156.65,63.94L160.67,55.58L164.68,48.46L168.7,42.47L172.72,37.38L176.73,32.8L180.75,28.89L184.77,24.74L188.78,24.74L192.8,21.55" style="fill: none; stroke: #abdda4; stroke-opacity: 1; stroke-width: 2px;"></path></g><g class="trace scatter" style="stroke-miterlimit: 2; opacity: 1;"><path class="js-line" d="M0,22.5L4.02,22.5L8.03,23.63L12.05,24.67L16.07,28.6L20.08,34.16L24.1,44.05L28.12,54.64L32.13,66.14L36.15,79.62L40.17,92.74L44.18,103.16L48.2,113.3L52.22,122.29L56.23,129.05L60.25,134.82L64.27,138.37L68.28,138.37L72.3,138.25L76.32,138.25L80.33,135.81L84.35,133.41L88.37,125.99L92.38,125.99L96.4,121.84L100.42,117.16L104.43,112.68L108.45,108L112.47,102.33L116.48,96.54L120.5,90.06L124.52,83.65L128.53,76.22L132.55,68.52L136.57,60.87L140.58,52.76L144.6,45.93L148.62,45.93L152.63,35.37L156.65,35.37L160.67,30.15L164.68,25.1L168.7,21.88L172.72,19.2L176.73,19.04" style="fill: none; stroke: #66c2a5; stroke-opacity: 1; stroke-width: 2px;"></path></g><g class="trace scatter" style="stroke-miterlimit: 2; opacity: 1;"><path class="js-line" d="M0,22.5L4.02,22.8L8.03,22.84L12.05,23.76L16.07,25.32L20.08,27.55L24.1,32.87L28.12,40.65L32.13,51.13L36.15,63.32L40.17,77.13L44.18,77.13L48.2,101.13L52.22,101.13L56.23,112.07L60.25,122.19L64.27,138.17L68.28,138.17L72.3,142.99L76.32,144.53L80.33,143.69L84.35,140.74L88.37,137.08L92.38,133.23L96.4,129.04L100.42,124.49L104.43,119.35L108.45,114.36L112.47,109.15L116.48,104.31L120.5,99.52L124.52,99.52L128.53,89.54L132.55,89.54L136.57,83.94L140.58,77.62L144.6,71.44L148.62,64.78L152.63,58.14L156.65,51.52L160.67,45.68L164.68,51.03L168.7,52.95L172.72,51.06L176.73,47.54L180.75,43.8L184.77,39.86L188.78,37.46L192.8,36.15" style="fill: none; stroke: #3288bd; stroke-opacity: 1; stroke-width: 2px;"></path></g><g class="trace scatter" style="stroke-miterlimit: 2; opacity: 1;"><path class="js-line" d="M0,22.5L4.02,22.5L8.03,23.85L12.05,23.85L16.07,25.1L20.08,26.22L24.1,36.62L28.12,36.62L32.13,47.66L36.15,57.04L40.17,68.51L44.18,80.72L48.2,91.63L52.22,102.64L56.23,112.77L60.25,121.69L64.27,130.1L68.28,136.71L72.3,141.27L76.32,143.37L80.33,143.2L84.35,143.2L88.37,138.71L92.38,138.71L96.4,135.48L100.42,131.76L104.43,127.4L108.45,122.82L112.47,118.19L116.48,113.21L120.5,107.55L124.52,101.24L128.53,94.88L132.55,88.93L136.57,82.53L140.58,76.38L144.6,70.81L148.62,65.07L152.63,59.18L156.65,59.18L160.67,47.34L164.68,42.69L168.7,42.69L172.72,38.3L176.73,30.92L180.75,30.92L184.77,29.31L188.78,26.47L192.8,23.63L196.82,21.23L200.83,19.95" style="fill: none; stroke: #5e4fa2; stroke-opacity: 1; stroke-width: 2px;"></path></g></g></svg><g></g><path class="crisp" transform="translate(55,30)" d="M-5,229.5h251" style="fill: none; stroke-width: 1px; stroke: #000000; stroke-opacity: 0;"></path><path class="crisp" transform="translate(55,30)" d="M-4.5,-5v234" stroke-width="1px" style="fill: none; stroke: #000000; stroke-opacity: 0;"></path><g></g><g transform="translate(55,30)"><g class="xtick"><text text-anchor="middle" x="0" y="243" transform="translate(0,0)" style="font-family: 'Open sans', verdana, arial, sans-serif; font-size: 12px; fill: #444444; fill-opacity: 1; visibility: visible;" data-bb="9123">0</text></g><g class="xtick"><text text-anchor="middle" x="0" y="243" transform="translate(80.33,0)" style="font-family: 'Open sans', verdana, arial, sans-serif; font-size: 12px; fill: #444444; fill-opacity: 1; visibility: visible;" data-bb="9124">1</text></g><g class="xtick"><text text-anchor="middle" x="0" y="243" transform="translate(160.67,0)" style="font-family: 'Open sans', verdana, arial, sans-serif; font-size: 12px; fill: #444444; fill-opacity: 1; visibility: visible;" data-bb="9125">2</text></g><g class="xtick"><text text-anchor="middle" x="0" y="243" transform="translate(241,0)" style="font-family: 'Open sans', verdana, arial, sans-serif; font-size: 12px; fill: #444444; fill-opacity: 1; visibility: visible;" data-bb="9126">3</text></g></g><g transform="translate(55,30)"><g class="ytick"><text text-anchor="end" x="-6" y="6" transform="translate(0,202.5)" style="font-family: 'Open sans', verdana, arial, sans-serif; font-size: 12px; fill: #444444; fill-opacity: 1; visibility: visible;">−80</text></g><g class="ytick"><text text-anchor="end" x="-6" y="6" transform="translate(0,157.5)" style="font-family: 'Open sans', verdana, arial, sans-serif; font-size: 12px; fill: #444444; fill-opacity: 1; visibility: visible;">−60</text></g><g class="ytick"><text text-anchor="end" x="-6" y="6" transform="translate(0,112.5)" style="font-family: 'Open sans', verdana, arial, sans-serif; font-size: 12px; fill: #444444; fill-opacity: 1; visibility: visible;">−40</text></g><g class="ytick"><text text-anchor="end" x="-6" y="6" transform="translate(0,67.5)" style="font-family: 'Open sans', verdana, arial, sans-serif; font-size: 12px; fill: #444444; fill-opacity: 1; visibility: visible;">−20</text></g><g class="ytick"><text text-anchor="end" x="-6" y="6" transform="translate(0,22.5)" style="font-family: 'Open sans', verdana, arial, sans-serif; font-size: 12px; fill: #444444; fill-opacity: 1; visibility: visible;">0</text></g></g><g></g></g><g transform="translate(55,30)"></g><g class="shapelayer" style="pointer-events: none;"></g><g class="infolayer"><g class="g-gtitle"><text class="gtitle" x="200" y="15" text-anchor="middle" style="font-family: 'Open sans', verdana, arial, sans-serif; font-size: 17px; fill: #444444; opacity: 1; visibility: visible;">Last Set of Reps</text></g><g class="g-xtitle" data-bb="9127" transform="translate(0,-18)"><text class="xtitle" x="175.5" y="313" text-anchor="middle" style="font-family: 'Open sans', verdana, arial, sans-serif; font-size: 16px; fill: #6b6b6b; opacity: 1; visibility: visible;">Duration (seconds)</text></g><g class="g-ytitle" data-bb="9128" transform="translate(4,0)"><text class="ytitle" transform="rotate(-90,13,142.5) translate(0, 0)" x="13" y="142.5" text-anchor="middle" style="font-family: 'Open sans', verdana, arial, sans-serif; font-size: 16px; fill: #6b6b6b; opacity: 1; visibility: visible;">Pitch (degrees)</text></g><svg class="legend" x="301" y="30" width="87" height="219"><rect class="bg" x="0" y="0" width="87" height="219" style="stroke: #444444; stroke-opacity: 1; fill: #ffffff; fill-opacity: 1; stroke-width: 0px;"></rect><g class="traces" transform="translate(0,14.5)" style="opacity: 1;"><g class="legendfill"></g><g class="legendlines"><path class="js-line" d="M5,0h30" style="fill: none; stroke: #969696; stroke-opacity: 1; stroke-width: 2px;"></path></g><g class="legendsymbols" style="opacity: 1;"><g class="legendpoints"></g></g><text class="legendtext" x="40" y="4.680000000000001" style="text-anchor: start; font-family: 'Open sans', verdana, arial, sans-serif; font-size: 12px; fill: #444444; fill-opacity: 1; visibility: visible;" data-bb="9112">optimal</text><rect class="legendtoggle" x="0" y="-9.5" height="19" width="82" style="cursor: pointer; fill: #000000; fill-opacity: 0;"></rect></g><g class="traces" transform="translate(0,33.5)" style="opacity: 1;"><g class="legendfill"></g><g class="legendlines"><path class="js-line" d="M5,0h30" style="fill: none; stroke: #9e0142; stroke-opacity: 1; stroke-width: 2px;"></path></g><g class="legendsymbols" style="opacity: 1;"><g class="legendpoints"></g></g><text class="legendtext" x="40" y="4.680000000000001" style="text-anchor: start; font-family: 'Open sans', verdana, arial, sans-serif; font-size: 12px; fill: #444444; fill-opacity: 1; visibility: visible;" data-bb="9113">1</text><rect class="legendtoggle" x="0" y="-9.5" height="19" width="82" style="cursor: pointer; fill: #000000; fill-opacity: 0;"></rect></g><g class="traces" transform="translate(0,52.5)" style="opacity: 1;"><g class="legendfill"></g><g class="legendlines"><path class="js-line" d="M5,0h30" style="fill: none; stroke: #d53e4f; stroke-opacity: 1; stroke-width: 2px;"></path></g><g class="legendsymbols" style="opacity: 1;"><g class="legendpoints"></g></g><text class="legendtext" x="40" y="4.680000000000001" style="text-anchor: start; font-family: 'Open sans', verdana, arial, sans-serif; font-size: 12px; fill: #444444; fill-opacity: 1; visibility: visible;" data-bb="9114">2</text><rect class="legendtoggle" x="0" y="-9.5" height="19" width="82" style="cursor: pointer; fill: #000000; fill-opacity: 0;"></rect></g><g class="traces" transform="translate(0,71.5)" style="opacity: 1;"><g class="legendfill"></g><g class="legendlines"><path class="js-line" d="M5,0h30" style="fill: none; stroke: #f46d43; stroke-opacity: 1; stroke-width: 2px;"></path></g><g class="legendsymbols" style="opacity: 1;"><g class="legendpoints"></g></g><text class="legendtext" x="40" y="4.680000000000001" style="text-anchor: start; font-family: 'Open sans', verdana, arial, sans-serif; font-size: 12px; fill: #444444; fill-opacity: 1; visibility: visible;" data-bb="9115">3</text><rect class="legendtoggle" x="0" y="-9.5" height="19" width="82" style="cursor: pointer; fill: #000000; fill-opacity: 0;"></rect></g><g class="traces" transform="translate(0,90.5)" style="opacity: 1;"><g class="legendfill"></g><g class="legendlines"><path class="js-line" d="M5,0h30" style="fill: none; stroke: #fdae61; stroke-opacity: 1; stroke-width: 2px;"></path></g><g class="legendsymbols" style="opacity: 1;"><g class="legendpoints"></g></g><text class="legendtext" x="40" y="4.680000000000001" style="text-anchor: start; font-family: 'Open sans', verdana, arial, sans-serif; font-size: 12px; fill: #444444; fill-opacity: 1; visibility: visible;" data-bb="9116">4</text><rect class="legendtoggle" x="0" y="-9.5" height="19" width="82" style="cursor: pointer; fill: #000000; fill-opacity: 0;"></rect></g><g class="traces" transform="translate(0,109.5)" style="opacity: 1;"><g class="legendfill"></g><g class="legendlines"><path class="js-line" d="M5,0h30" style="fill: none; stroke: #fee08b; stroke-opacity: 1; stroke-width: 2px;"></path></g><g class="legendsymbols" style="opacity: 1;"><g class="legendpoints"></g></g><text class="legendtext" x="40" y="4.680000000000001" style="text-anchor: start; font-family: 'Open sans', verdana, arial, sans-serif; font-size: 12px; fill: #444444; fill-opacity: 1; visibility: visible;" data-bb="9117">5</text><rect class="legendtoggle" x="0" y="-9.5" height="19" width="82" style="cursor: pointer; fill: #000000; fill-opacity: 0;"></rect></g><g class="traces" transform="translate(0,128.5)" style="opacity: 1;"><g class="legendfill"></g><g class="legendlines"><path class="js-line" d="M5,0h30" style="fill: none; stroke: #e6f598; stroke-opacity: 1; stroke-width: 2px;"></path></g><g class="legendsymbols" style="opacity: 1;"><g class="legendpoints"></g></g><text class="legendtext" x="40" y="4.680000000000001" style="text-anchor: start; font-family: 'Open sans', verdana, arial, sans-serif; font-size: 12px; fill: #444444; fill-opacity: 1; visibility: visible;" data-bb="9118">6</text><rect class="legendtoggle" x="0" y="-9.5" height="19" width="82" style="cursor: pointer; fill: #000000; fill-opacity: 0;"></rect></g><g class="traces" transform="translate(0,147.5)" style="opacity: 1;"><g class="legendfill"></g><g class="legendlines"><path class="js-line" d="M5,0h30" style="fill: none; stroke: #abdda4; stroke-opacity: 1; stroke-width: 2px;"></path></g><g class="legendsymbols" style="opacity: 1;"><g class="legendpoints"></g></g><text class="legendtext" x="40" y="4.680000000000001" style="text-anchor: start; font-family: 'Open sans', verdana, arial, sans-serif; font-size: 12px; fill: #444444; fill-opacity: 1; visibility: visible;" data-bb="9119">7</text><rect class="legendtoggle" x="0" y="-9.5" height="19" width="82" style="cursor: pointer; fill: #000000; fill-opacity: 0;"></rect></g><g class="traces" transform="translate(0,166.5)" style="opacity: 1;"><g class="legendfill"></g><g class="legendlines"><path class="js-line" d="M5,0h30" style="fill: none; stroke: #66c2a5; stroke-opacity: 1; stroke-width: 2px;"></path></g><g class="legendsymbols" style="opacity: 1;"><g class="legendpoints"></g></g><text class="legendtext" x="40" y="4.680000000000001" style="text-anchor: start; font-family: 'Open sans', verdana, arial, sans-serif; font-size: 12px; fill: #444444; fill-opacity: 1; visibility: visible;" data-bb="9120">8</text><rect class="legendtoggle" x="0" y="-9.5" height="19" width="82" style="cursor: pointer; fill: #000000; fill-opacity: 0;"></rect></g><g class="traces" transform="translate(0,185.5)" style="opacity: 1;"><g class="legendfill"></g><g class="legendlines"><path class="js-line" d="M5,0h30" style="fill: none; stroke: #3288bd; stroke-opacity: 1; stroke-width: 2px;"></path></g><g class="legendsymbols" style="opacity: 1;"><g class="legendpoints"></g></g><text class="legendtext" x="40" y="4.680000000000001" style="text-anchor: start; font-family: 'Open sans', verdana, arial, sans-serif; font-size: 12px; fill: #444444; fill-opacity: 1; visibility: visible;" data-bb="9121">9</text><rect class="legendtoggle" x="0" y="-9.5" height="19" width="82" style="cursor: pointer; fill: #000000; fill-opacity: 0;"></rect></g><g class="traces" transform="translate(0,204.5)" style="opacity: 1;"><g class="legendfill"></g><g class="legendlines"><path class="js-line" d="M5,0h30" style="fill: none; stroke: #5e4fa2; stroke-opacity: 1; stroke-width: 2px;"></path></g><g class="legendsymbols" style="opacity: 1;"><g class="legendpoints"></g></g><text class="legendtext" x="40" y="4.680000000000001" style="text-anchor: start; font-family: 'Open sans', verdana, arial, sans-serif; font-size: 12px; fill: #444444; fill-opacity: 1; visibility: visible;" data-bb="9122">10</text><rect class="legendtoggle" x="0" y="-9.5" height="19" width="82" style="cursor: pointer; fill: #000000; fill-opacity: 0;"></rect></g></svg></g><g class="hoverlayer" style="pointer-events: none;"></g><text class="js-plot-link-container" y="291" text-anchor="end" x="393" style="font-family: 'Open Sans', Arial, sans-serif; font-size: 12px; fill: #444444;"><tspan class="js-link-to-tool"></tspan><tspan class="js-link-spacer"></tspan><tspan class="js-sourcelinks"></tspan></text></svg>